<svg id="Layer_1" data-name="Layer 1" xmlns="http://www.w3.org/2000/svg" viewBox="0 0 594 142.91">
  <defs>
    <style>
      .cls-1 {
        fill: #3068f0;
      }

      .cls-2 {
        fill: #9e9e9e;
      }

      .cls-3 {
        fill: #ff9b20;
      }

      .cls-4, .cls-6 {
        fill: none;
        stroke-linecap: square;
      }

      .cls-4 {
        stroke: #4a4a4a;
      }

      .cls-5 {
        fill: #4a4a4a;
        fill-rule: evenodd;
      }

      .cls-6 {
        stroke: #000;
      }
    </style>
  </defs>
  <path class="cls-1" d="M5.78,51.61a.25.25,0,0,1-.2-.07.45.45,0,0,1-.06-.28V50.7a2.69,2.69,0,0,1-1,.8,3.1,3.1,0,0,1-1.34.28A2.84,2.84,0,0,1,1,50.86a3.36,3.36,0,0,1,0-4.61,3.33,3.33,0,0,1,3.62-.64,2.62,2.62,0,0,1,1,.74V43.61H5.32a1.85,1.85,0,0,1-.77-.11.43.43,0,0,1-.17-.38.47.47,0,0,1,.14-.37.61.61,0,0,1,.41-.13H6.32a.63.63,0,0,1,.3.07.27.27,0,0,1,.09.22v7.7H7a.89.89,0,0,1,.48.11.44.44,0,0,1,.15.36.49.49,0,0,1-.13.36.45.45,0,0,1-.35.13ZM1.32,48.53a2.06,2.06,0,0,0,2,2.15H3.5a2,2,0,0,0,1.55-.63,2.34,2.34,0,0,0,0-3.15,2.1,2.1,0,0,0-1.55-.62,2.07,2.07,0,0,0-1.56.63A2.21,2.21,0,0,0,1.32,48.53Z"/>
  <path class="cls-1" d="M9.82,48.75a2.07,2.07,0,0,0,.66,1.52,2.47,2.47,0,0,0,1.67.54,4.07,4.07,0,0,0,1.75-.43A4.59,4.59,0,0,1,15,50a.47.47,0,0,1,.48.44h0a.55.55,0,0,1-.15.36,1.6,1.6,0,0,1-.45.32,7.07,7.07,0,0,1-1.42.51,5.79,5.79,0,0,1-1.44.17,3.48,3.48,0,0,1-2.5-.9,3.16,3.16,0,0,1-.93-2.38,3.2,3.2,0,0,1,1-2.44,3.6,3.6,0,0,1,2.58-.94A3.38,3.38,0,0,1,14.6,46a2.77,2.77,0,0,1,1,2.12.62.62,0,0,1-.16.52,1.72,1.72,0,0,1-.87.13Zm0-.9h4.5a2,2,0,0,0-.68-1.31,2.1,2.1,0,0,0-1.42-.49,2.46,2.46,0,0,0-1.53.47,2.26,2.26,0,0,0-.84,1.33Z"/>
  <path class="cls-1" d="M22.63,50.61a.67.67,0,0,1,.43.12.44.44,0,0,1,.15.36.47.47,0,0,1-.14.37.6.6,0,0,1-.41.12H18.19a.67.67,0,0,1-.43-.12.47.47,0,0,1-.14-.37.43.43,0,0,1,.14-.36.58.58,0,0,1,.4-.12h1.16V46.45H18.2a.66.66,0,0,1-.43-.13.46.46,0,0,1-.15-.37.47.47,0,0,1,.14-.37.63.63,0,0,1,.42-.12h1.08V45A2.16,2.16,0,0,1,20,43.2a3.69,3.69,0,0,1,2.28-.59,2.91,2.91,0,0,1,1.13.17.58.58,0,0,1,.36.54.43.43,0,0,1-.15.34.68.68,0,0,1-.41.14,1.51,1.51,0,0,1-.59-.08,4.26,4.26,0,0,0-.8-.08,1.52,1.52,0,0,0-1.11.32,1.5,1.5,0,0,0-.35,1.11v.39h2.42a.63.63,0,0,1,.42.12.46.46,0,0,1,.15.37.48.48,0,0,1-.15.37.67.67,0,0,1-.41.13H20.41v4.16Z"/>
  <path class="cls-1" d="M39.2,45.67a.85.85,0,0,1,.49.12.41.41,0,0,1,.15.36.45.45,0,0,1-.14.36.64.64,0,0,1-.38.1H36.5V48.9a2.43,2.43,0,0,0,.29,1.47,1.21,1.21,0,0,0,1,.36,4,4,0,0,0,1.53-.34,4,4,0,0,1,1-.37.47.47,0,0,1,.45.47h0a.55.55,0,0,1-.16.39,1.78,1.78,0,0,1-.57.32,8.53,8.53,0,0,1-1.21.39,4.22,4.22,0,0,1-1,.13,3.24,3.24,0,0,1-1.34-.26,1.71,1.71,0,0,1-.81-.76,1.69,1.69,0,0,1-.2-.57,5.6,5.6,0,0,1-.06-1V46.61h-1.1a.55.55,0,0,1-.41-.11.46.46,0,0,1-.13-.37.4.4,0,0,1,.17-.38,1.77,1.77,0,0,1,.76-.1h.77V43.91a.69.69,0,0,1,.13-.44.51.51,0,0,1,.39-.14.48.48,0,0,1,.42.17,1.73,1.73,0,0,1,.12.78v1.39Z"/>
  <path class="cls-1" d="M45.06,50.61h2.26a.64.64,0,0,1,.4.11.48.48,0,0,1,.12.36.51.51,0,0,1-.12.39.65.65,0,0,1-.4.14h-4.5a.58.58,0,0,1-.4-.12.47.47,0,0,1-.1-.38.43.43,0,0,1,.14-.35.67.67,0,0,1,.43-.12h1.19V46.25h-.46a1.8,1.8,0,0,1-.83-.11.4.4,0,0,1-.16-.38.42.42,0,0,1,.13-.35.6.6,0,0,1,.41-.12h1.56a.45.45,0,0,1,.28.07.27.27,0,0,1,.09.21v1.16a4.63,4.63,0,0,1,1.36-1.21,3.07,3.07,0,0,1,1.51-.4,1.76,1.76,0,0,1,1,.25.72.72,0,0,1,.37.63.6.6,0,0,1-.18.44.56.56,0,0,1-.42.2,1.28,1.28,0,0,1-.53-.21,1.42,1.42,0,0,0-.66-.21,2.16,2.16,0,0,0-1.13.39,6.54,6.54,0,0,0-1.31,1.21Z"/>
  <path class="cls-1" d="M54.77,50.61H57a.64.64,0,0,1,.4.11.48.48,0,0,1,.12.36.51.51,0,0,1-.12.39.68.68,0,0,1-.44.1h-5.3a.6.6,0,0,1-.41-.12.5.5,0,0,1-.13-.37.43.43,0,0,1,.14-.35.67.67,0,0,1,.43-.12h2.09V46.25H52.4a.61.61,0,0,1-.43-.13.44.44,0,0,1-.15-.36.43.43,0,0,1,.14-.35.6.6,0,0,1,.41-.12h2a.5.5,0,0,1,.29.07.26.26,0,0,1,.11.21ZM53.5,43.29a2,2,0,0,1,.14-.93c.09-.13.28-.19.57-.19a.72.72,0,0,1,.56.16,2.12,2.12,0,0,1,0,1.49.77.77,0,0,1-.57.14.94.94,0,0,1-.57-.13.77.77,0,0,1-.13-.51Z"/>
  <path class="cls-1" d="M60.77,53.35h1.64a.52.52,0,0,1,.39.13.46.46,0,0,1,.13.37.5.5,0,0,1-.12.37.79.79,0,0,1-.45.11h-3a.6.6,0,0,1-.41-.12.53.53,0,0,1,0-.75h0a1.32,1.32,0,0,1,.65-.11h.13V46.26h-.13a1.32,1.32,0,0,1-.65-.11.43.43,0,0,1-.17-.38.45.45,0,0,1,.14-.36.6.6,0,0,1,.41-.12h1a.52.52,0,0,1,.3.06.27.27,0,0,1,.09.22v.66a3.2,3.2,0,0,1,4.53,0h0a3.17,3.17,0,0,1,1,2.38,2.93,2.93,0,0,1-2.86,3h-.14a3.54,3.54,0,0,1-1.33-.26,2.59,2.59,0,0,1-1-.73Zm2.12-2.74a2.16,2.16,0,0,0,1.56-.6,2,2,0,0,0,.61-1.54,2.06,2.06,0,0,0-.61-1.54,2.16,2.16,0,0,0-1.56-.6,2.19,2.19,0,0,0-2.17,2.19,2.16,2.16,0,0,0,.6,1.49A2.1,2.1,0,0,0,62.89,50.61Z"/>
  <path class="cls-1" d="M75.26,54.09v.81H66.62v-.81Z"/>
  <path class="cls-1" d="M79.32,48.13l-.89,3.25a.57.57,0,0,1-.2.36.66.66,0,0,1-.41.1.52.52,0,0,1-.38-.13,1,1,0,0,1-.25-.47l-1.56-5h-.07a.65.65,0,0,1-.41-.11.52.52,0,0,1-.13-.38.43.43,0,0,1,.14-.35.55.55,0,0,1,.39-.12h1.77a.84.84,0,0,1,.49.1.43.43,0,0,1,.13.37.55.55,0,0,1-.07.28.32.32,0,0,1-.19.15h-1l1.17,4.11.89-3a.63.63,0,0,1,.21-.36.64.64,0,0,1,.4-.11.51.51,0,0,1,.39.14,1.26,1.26,0,0,1,.25.47l.85,2.84L82,46.16h-.46a1.24,1.24,0,0,1-.63-.11.4.4,0,0,1-.17-.38.45.45,0,0,1,.12-.37.8.8,0,0,1,.48-.1h1.84a.39.39,0,0,1,.31.12.49.49,0,0,1,.11.35.5.5,0,0,1-.12.37.77.77,0,0,1-.47.12l-1.54,5.13a.75.75,0,0,1-.22.36.63.63,0,0,1-.4.1.56.56,0,0,1-.39-.13,1.4,1.4,0,0,1-.24-.47Z"/>
  <path class="cls-1" d="M85.43,48.75a2.08,2.08,0,0,0,.67,1.52,2.42,2.42,0,0,0,1.67.54,4.21,4.21,0,0,0,1.74-.43A4.59,4.59,0,0,1,90.65,50a.47.47,0,0,1,.48.44h0a.54.54,0,0,1-.14.36,1.65,1.65,0,0,1-.46.32,7,7,0,0,1-1.41.51,5.87,5.87,0,0,1-1.45.17,3.42,3.42,0,0,1-2.49-.9,3.12,3.12,0,0,1-.94-2.38,3.2,3.2,0,0,1,1-2.44,3.6,3.6,0,0,1,2.58-.94,3.43,3.43,0,0,1,2.4.87,2.8,2.8,0,0,1,1,2.12.69.69,0,0,1-.16.52,1.77,1.77,0,0,1-.88.13Zm0-.9h4.45a2,2,0,0,0-.68-1.31,2.1,2.1,0,0,0-1.42-.49,2.46,2.46,0,0,0-1.53.47,2.29,2.29,0,0,0-.79,1.33Z"/>
  <path class="cls-1" d="M95.68,43.61H94.52a2.14,2.14,0,0,1-.83-.11.43.43,0,0,1-.17-.38.47.47,0,0,1,.14-.37.61.61,0,0,1,.41-.13h2.25a.46.46,0,0,1,.28.08.23.23,0,0,1,.1.21v7.7h2.15a.57.57,0,0,1,.38.11.48.48,0,0,1,.12.36.51.51,0,0,1-.12.39.66.66,0,0,1-.43.1h-5a.58.58,0,0,1-.4-.12.46.46,0,0,1-.15-.37.4.4,0,0,1,.15-.35.67.67,0,0,1,.43-.12h1.89Z"/>
  <path class="cls-1" d="M106.6,45.7h0a.41.41,0,0,1,.13-.33.64.64,0,0,1,.4-.11.42.42,0,0,1,.39.17,1.39,1.39,0,0,1,.1.67v1.27a.44.44,0,0,1-.36.51h-.15a.52.52,0,0,1-.32-.11,1.31,1.31,0,0,1-.33-.44,2.25,2.25,0,0,0-.79-.83,2.16,2.16,0,0,0-1.08-.29,2.4,2.4,0,0,0-1.73.63,2.14,2.14,0,0,0-.67,1.63,2.27,2.27,0,0,0,.64,1.66,2.23,2.23,0,0,0,1.64.65,2.9,2.9,0,0,0,1.66-.51l.35-.25a1.32,1.32,0,0,1,.69-.36.45.45,0,0,1,.48.42h0v.06c0,.36-.34.72-1,1.1a4.33,4.33,0,0,1-2.17.56,3.37,3.37,0,0,1-2.5-5.71h0a3.35,3.35,0,0,1,2.46-1,4.23,4.23,0,0,1,1,.14A6.87,6.87,0,0,1,106.6,45.7Z"/>
  <path class="cls-1" d="M116.53,48.45a3.09,3.09,0,0,1-1,2.39,4.06,4.06,0,0,1-5.17,0,3.36,3.36,0,0,1,0-4.75h0a4.06,4.06,0,0,1,5.17,0A3.1,3.1,0,0,1,116.53,48.45Zm-3.59,2.36a2.33,2.33,0,0,0,1.73-.67,2.49,2.49,0,0,0,0-3.39,2.42,2.42,0,1,0-3.45,3.4A2.38,2.38,0,0,0,112.94,50.81Z"/>
  <path class="cls-1" d="M123.88,47.8a3.43,3.43,0,0,0-.17-1.31.65.65,0,0,0-.6-.34.92.92,0,0,0-.8.44,2.14,2.14,0,0,0-.3,1.21v2.81h.13a1,1,0,0,1,.55.1.43.43,0,0,1,.14.37.5.5,0,0,1-.12.37.48.48,0,0,1-.39.16h-.87a.49.49,0,0,1-.4-.13,1.09,1.09,0,0,1-.11-.59V47.26a1.22,1.22,0,0,0-.23-.81.76.76,0,0,0-.64-.3,1,1,0,0,0-.56.19,1.41,1.41,0,0,0-.44.53v3.74h.25a1,1,0,0,1,.55.1.4.4,0,0,1,.14.37.6.6,0,0,1-.11.39.7.7,0,0,1-.45.1h-1.81a.55.55,0,0,1-.39-.12.46.46,0,0,1-.13-.37.38.38,0,0,1,.16-.37,1.2,1.2,0,0,1,.62-.1H118V46.25h-.13a1.28,1.28,0,0,1-.64-.11.41.41,0,0,1-.18-.38.43.43,0,0,1,.14-.35.6.6,0,0,1,.41-.12h1c.15,0,.25,0,.29.07a.63.63,0,0,1,.09.33,1.67,1.67,0,0,1,1.3-.58,1.38,1.38,0,0,1,.79.21,1.19,1.19,0,0,1,.46.62,2,2,0,0,1,.66-.63,1.88,1.88,0,0,1,.87-.2,1.46,1.46,0,0,1,1.29.57,3.34,3.34,0,0,1,.4,1.86v3.07h.11a1,1,0,0,1,.56.1.41.41,0,0,1,.15.37.5.5,0,0,1-.13.37.48.48,0,0,1-.36.12h-.8a.5.5,0,0,1-.4-.16.8.8,0,0,1-.13-.52Z"/>
  <path class="cls-1" d="M127.44,48.75a2.07,2.07,0,0,0,.66,1.52,2.47,2.47,0,0,0,1.67.54,4.07,4.07,0,0,0,1.75-.43,4.59,4.59,0,0,1,1.14-.42.47.47,0,0,1,.34.13.43.43,0,0,1,.14.32.55.55,0,0,1-.15.36,1.6,1.6,0,0,1-.45.32,7.07,7.07,0,0,1-1.42.51,5.79,5.79,0,0,1-1.44.17,3.48,3.48,0,0,1-2.5-.9,3.16,3.16,0,0,1-.93-2.38,3.2,3.2,0,0,1,1-2.44,3.6,3.6,0,0,1,2.58-.94,3.38,3.38,0,0,1,2.39.87,2.76,2.76,0,0,1,1,2.12.62.62,0,0,1-.16.52,1.72,1.72,0,0,1-.87.13Zm0-.9h4.45a2,2,0,0,0-.68-1.31,2.1,2.1,0,0,0-1.42-.49,2.46,2.46,0,0,0-1.53.47,2.29,2.29,0,0,0-.79,1.33Z"/>
  <path class="cls-2" d="M139.54,43.61a1.93,1.93,0,0,1-.23.62c-.16.32-.27.57-.35.76a11.43,11.43,0,0,0-.66,2,9.48,9.48,0,0,0,0,3.6,8.91,8.91,0,0,0,.5,1.67,11.21,11.21,0,0,0,.47,1.07,2.87,2.87,0,0,1,.3.75.4.4,0,0,1-.07.24.19.19,0,0,1-.17.08.79.79,0,0,1-.48-.22,3.7,3.7,0,0,1-.6-.71,7.93,7.93,0,0,1-1.45-4.61,8.63,8.63,0,0,1,.29-2.2,8,8,0,0,1,.91-2,5.13,5.13,0,0,1,.73-1,.94.94,0,0,1,.6-.32.19.19,0,0,1,.17.08A.41.41,0,0,1,139.54,43.61Z"/>
  <path class="cls-3" d="M148.61,51.61c-.1,0-.17,0-.2-.07a.45.45,0,0,1-.06-.28V50.7a2.88,2.88,0,0,1-1,.8,3.06,3.06,0,0,1-1.33.28,2.84,2.84,0,0,1-2.16-.92,3.12,3.12,0,0,1-.88-2.28,3.21,3.21,0,0,1,.93-2.36,3.34,3.34,0,0,1,3.58-.69,2.62,2.62,0,0,1,1,.74V43.61h-.36a1.85,1.85,0,0,1-.77-.11.41.41,0,0,1-.18-.38.47.47,0,0,1,.14-.37.61.61,0,0,1,.41-.13h1.4a.53.53,0,0,1,.3.07.27.27,0,0,1,.09.22v7.7h.31a.89.89,0,0,1,.48.11.44.44,0,0,1,.15.36.49.49,0,0,1-.13.36.43.43,0,0,1-.34.13Zm-4.48-3.07a2.09,2.09,0,0,0,.61,1.55,2.11,2.11,0,0,0,1.54.6,2,2,0,0,0,1.55-.63,2.35,2.35,0,0,0,0-3.15,2.12,2.12,0,0,0-1.56-.62,2.07,2.07,0,0,0-1.56.63,2.23,2.23,0,0,0-.58,1.61Z"/>
  <path class="cls-3" d="M152.64,48.75a2.08,2.08,0,0,0,.67,1.52,2.42,2.42,0,0,0,1.67.54,4.21,4.21,0,0,0,1.74-.43,4.59,4.59,0,0,1,1.14-.42.46.46,0,0,1,.48.45.54.54,0,0,1-.14.36,1.65,1.65,0,0,1-.46.32,7.1,7.1,0,0,1-1.42.52,5.87,5.87,0,0,1-1.45.17,3.42,3.42,0,0,1-2.49-.9,3.12,3.12,0,0,1-.94-2.38,3.2,3.2,0,0,1,1-2.44,3.59,3.59,0,0,1,2.59-.94,3.38,3.38,0,0,1,2.39.87,2.8,2.8,0,0,1,1,2.12.69.69,0,0,1-.16.52,1.85,1.85,0,0,1-.87.13h-4.75Zm0-.9h4.45a2,2,0,0,0-.68-1.31,2.08,2.08,0,0,0-1.41-.49,2.44,2.44,0,0,0-1.54.47,2.29,2.29,0,0,0-.79,1.33Z"/>
  <path class="cls-3" d="M160.37,51.11V49.89a.73.73,0,0,1,.11-.43.5.5,0,0,1,.37-.13c.19,0,.33.13.44.39a2.33,2.33,0,0,0,.2.34,2,2,0,0,0,.85.6,3.53,3.53,0,0,0,1.24.22,2,2,0,0,0,1.16-.3.89.89,0,0,0,.44-.77.74.74,0,0,0-.35-.69,2.64,2.64,0,0,0-1.21-.2h-.38a3.93,3.93,0,0,1-2.12-.49,1.57,1.57,0,0,1-.74-1.41,1.6,1.6,0,0,1,.72-1.4,3.51,3.51,0,0,1,2-.5,3.89,3.89,0,0,1,1.07.15l.57.15a.78.78,0,0,0,.29-.14.77.77,0,0,1,.42-.13.35.35,0,0,1,.34.17.91.91,0,0,1,.11.51v.78a1,1,0,0,1-.1.53.39.39,0,0,1-.35.16c-.14,0-.31-.12-.51-.35a4,4,0,0,0-.35-.36,2.3,2.3,0,0,0-.77-.49,3.06,3.06,0,0,0-1-.14,1.78,1.78,0,0,0-1,.28.87.87,0,0,0-.39.72.64.64,0,0,0,.4.62,5.69,5.69,0,0,0,1.74.21,4,4,0,0,1,2.08.49,1.66,1.66,0,0,1,.67,1.43,1.76,1.76,0,0,1-.72,1.48,3.17,3.17,0,0,1-2,.55,5.1,5.1,0,0,1-.87-.07,6.08,6.08,0,0,1-1.2-.24,3.3,3.3,0,0,1-.41.23.74.74,0,0,1-.29.08.42.42,0,0,1-.36-.17A.74.74,0,0,1,160.37,51.11Z"/>
  <path class="cls-3" d="M173.62,45.67a.85.85,0,0,1,.49.12.41.41,0,0,1,.15.36.45.45,0,0,1-.14.36.67.67,0,0,1-.43.12h-2.77v2.29a2.58,2.58,0,0,0,.29,1.47,1.21,1.21,0,0,0,1,.36,4,4,0,0,0,1.49-.36,4.06,4.06,0,0,1,1.08-.37.43.43,0,0,1,.32.14.48.48,0,0,1,.14.34.52.52,0,0,1-.17.39,1.78,1.78,0,0,1-.57.32,8.19,8.19,0,0,1-1.18.4,4.22,4.22,0,0,1-1,.13,3.24,3.24,0,0,1-1.34-.26,1.81,1.81,0,0,1-.81-.76,1.69,1.69,0,0,1-.2-.57,8.34,8.34,0,0,1,0-1V46.61H168.8a.55.55,0,0,1-.41-.11.46.46,0,0,1-.13-.37.43.43,0,0,1,.17-.38,1.77,1.77,0,0,1,.76-.1H170V43.91a.68.68,0,0,1,.12-.44.53.53,0,0,1,.4-.14.46.46,0,0,1,.41.17,1.73,1.73,0,0,1,.12.78v1.39Z"/>
  <path class="cls-3" d="M180.79,50.61H183a.64.64,0,0,1,.4.11.48.48,0,0,1,.12.36.51.51,0,0,1-.12.39.68.68,0,0,1-.44.1h-5.29a.6.6,0,0,1-.41-.12.47.47,0,0,1-.14-.37.43.43,0,0,1,.14-.35.67.67,0,0,1,.43-.12h2.09V46.25h-1.34a.61.61,0,0,1-.43-.13.44.44,0,0,1-.15-.36.43.43,0,0,1,.14-.35.6.6,0,0,1,.41-.12h2a.5.5,0,0,1,.29.07.26.26,0,0,1,.11.21Zm-1.26-7.32a2,2,0,0,1,.13-.93c.09-.13.28-.19.57-.19a.72.72,0,0,1,.56.16,2.12,2.12,0,0,1,0,1.49.77.77,0,0,1-.57.14.94.94,0,0,1-.57-.13.76.76,0,0,1-.12-.51Z"/>
  <path class="cls-3" d="M186,50.61V46.26h-.13a1.28,1.28,0,0,1-.64-.11.43.43,0,0,1-.17-.38.47.47,0,0,1,.14-.37.72.72,0,0,1,.47-.11h1a.45.45,0,0,1,.28.07.23.23,0,0,1,.1.21V46a3.61,3.61,0,0,1,1-.68,2.29,2.29,0,0,1,1-.23,2.1,2.1,0,0,1,1.62.65,2.49,2.49,0,0,1,.59,1.77v3.07h.33a.93.93,0,0,1,.49.11.44.44,0,0,1,.15.36.4.4,0,0,1-.16.38,1,1,0,0,1-.57.11H190a1,1,0,0,1-.57-.1.51.51,0,0,1-.12-.39.41.41,0,0,1,.15-.37,1,1,0,0,1,.54-.1h.24V47.8a1.83,1.83,0,0,0-.36-1.22,1.3,1.3,0,0,0-1.06-.43,1.79,1.79,0,0,0-1.23.48,1.48,1.48,0,0,0-.54,1.17v2.81h.27a1,1,0,0,1,.56.1.47.47,0,0,1,.14.37.51.51,0,0,1-.12.39,1,1,0,0,1-.6.1h-1.62a.63.63,0,0,1-.42-.12.47.47,0,0,1-.14-.37.44.44,0,0,1,.16-.37,1.37,1.37,0,0,1,.63-.1Z"/>
  <path class="cls-3" d="M198.53,50.73a4.23,4.23,0,0,1-1.22.78,3.5,3.5,0,0,1-1.36.26,2.43,2.43,0,0,1-1.63-.56,2.08,2.08,0,0,1,0-2.94,2.25,2.25,0,0,1,.24-.21,4,4,0,0,1,2.34-.6,7.16,7.16,0,0,1,.8,0,3.31,3.31,0,0,1,.82.16h0a1.33,1.33,0,0,0-1.09-1.53,1.14,1.14,0,0,0-.45,0,3.05,3.05,0,0,0-1.19.28,3,3,0,0,1-.87.29.42.42,0,0,1-.33-.16.67.67,0,0,1-.13-.41c0-.27.26-.5.76-.69a5.75,5.75,0,0,1,1.93-.28A2.15,2.15,0,0,1,199.54,47a2.08,2.08,0,0,1,0,.61v3h.34a1.31,1.31,0,0,1,.65.1.38.38,0,0,1,.16.37.5.5,0,0,1-.13.37.6.6,0,0,1-.41.12h-1.08a.51.51,0,0,1-.31-.11.61.61,0,0,1-.17-.34Zm-.06-2.12a4.46,4.46,0,0,0-.72-.18,4.14,4.14,0,0,0-.7-.06,3.34,3.34,0,0,0-1.67.36,1.07,1.07,0,0,0-.6,1,.91.91,0,0,0,.38.77,1.5,1.5,0,0,0,1,.3,3,3,0,0,0,1.61-.45c.5-.31.74-.62.74-1Z"/>
  <path class="cls-3" d="M207.22,45.67a.78.78,0,0,1,.49.12.41.41,0,0,1,.16.36.44.44,0,0,1-.15.36.63.63,0,0,1-.4.1h-2.8V48.9a2.44,2.44,0,0,0,.3,1.47,1.21,1.21,0,0,0,1,.36,4,4,0,0,0,1.49-.36,4.52,4.52,0,0,1,1.07-.37.48.48,0,0,1,.46.46h0a.52.52,0,0,1-.17.39,1.78,1.78,0,0,1-.57.32,8.4,8.4,0,0,1-1.2.39,4.22,4.22,0,0,1-1,.13,3.24,3.24,0,0,1-1.34-.26,1.73,1.73,0,0,1-.82-.76,1.91,1.91,0,0,1-.19-.57,5.6,5.6,0,0,1-.06-1V46.61h-1.17a.57.57,0,0,1-.42-.11.5.5,0,0,1-.13-.37.41.41,0,0,1,.18-.38,1.77,1.77,0,0,1,.76-.1h.77V43.91a.58.58,0,0,1,.13-.44.51.51,0,0,1,.39-.14.48.48,0,0,1,.42.17,1.6,1.6,0,0,1,.11.78v1.39Z"/>
  <path class="cls-3" d="M214.4,50.61h2.19a.6.6,0,0,1,.39.11.49.49,0,0,1,.13.36.51.51,0,0,1-.12.39.68.68,0,0,1-.44.1h-5.3a.6.6,0,0,1-.41-.12.47.47,0,0,1-.14-.37.4.4,0,0,1,.15-.35.66.66,0,0,1,.47-.12h2V46.25H212a.61.61,0,0,1-.43-.13.44.44,0,0,1-.15-.36.43.43,0,0,1,.14-.35.6.6,0,0,1,.41-.12h2a.5.5,0,0,1,.29.07.25.25,0,0,1,.07.25Zm-1.27-7.32a2.1,2.1,0,0,1,.13-.93c.09-.13.28-.19.57-.19a.74.74,0,0,1,.57.16,1.34,1.34,0,0,1,.13.76,1.32,1.32,0,0,1-.12.73.91.91,0,0,1-.58.14.94.94,0,0,1-.57-.13.83.83,0,0,1-.13-.51Z"/>
  <path class="cls-3" d="M225.75,48.45a3.09,3.09,0,0,1-1,2.39,4.06,4.06,0,0,1-5.17,0,3.36,3.36,0,0,1,0-4.75h0a4.06,4.06,0,0,1,5.17,0A3.12,3.12,0,0,1,225.75,48.45Zm-3.59,2.36a2.37,2.37,0,0,0,1.73-.67,2.47,2.47,0,0,0,0-3.39,2.53,2.53,0,0,0-3.44,0,2.5,2.5,0,0,0,0,3.4A2.38,2.38,0,0,0,222.16,50.81Z"/>
  <path class="cls-3" d="M228,50.61V46.26h-.13a1.28,1.28,0,0,1-.64-.11.41.41,0,0,1-.17-.38.4.4,0,0,1,.14-.37.69.69,0,0,1,.46-.11h1a.5.5,0,0,1,.29.07.23.23,0,0,1,.1.21V46a3.61,3.61,0,0,1,1-.68,2.29,2.29,0,0,1,1-.23,2.12,2.12,0,0,1,1.63.65,2.49,2.49,0,0,1,.59,1.77v3.07h.32a1,1,0,0,1,.5.11.44.44,0,0,1,.15.36.4.4,0,0,1-.16.38,1,1,0,0,1-.57.11H232a1,1,0,0,1-.56-.1.51.51,0,0,1-.12-.39.47.47,0,0,1,.14-.37,1,1,0,0,1,.55-.1h.24V47.8a1.79,1.79,0,0,0-.37-1.22,1.24,1.24,0,0,0-1-.43,1.75,1.75,0,0,0-1.23.48,1.48,1.48,0,0,0-.54,1.17v2.81h.2a1,1,0,0,1,.55.1.41.41,0,0,1,.15.37.51.51,0,0,1-.12.39,1.16,1.16,0,0,1-.61.1h-1.61a.63.63,0,0,1-.42-.12.47.47,0,0,1-.14-.37.38.38,0,0,1,.16-.37,1.37,1.37,0,0,1,.63-.1Z"/>
  <path class="cls-2" d="M237.57,54a1.91,1.91,0,0,1,.23-.6q.24-.47.36-.75a13,13,0,0,0,.65-2,8.69,8.69,0,0,0,0-3.59,11.78,11.78,0,0,0-1-2.75,3,3,0,0,1-.29-.77.34.34,0,0,1,.07-.22.18.18,0,0,1,.18-.08.74.74,0,0,1,.48.22,3.7,3.7,0,0,1,.6.71A8.16,8.16,0,0,1,240,46.38,8.29,8.29,0,0,1,240,51a8.63,8.63,0,0,1-.92,2,5.63,5.63,0,0,1-.74,1,.86.86,0,0,1-.57.31.23.23,0,0,1-.18-.08A.34.34,0,0,1,237.57,54Z"/>
  <path class="cls-2" d="M246,46.7a1.11,1.11,0,0,1,.37-.87,1.35,1.35,0,0,1,1-.35,1.42,1.42,0,0,1,1,.34,1.13,1.13,0,0,1,.37.88,1.09,1.09,0,0,1-.45.91,1.58,1.58,0,0,1-1.95,0A1.15,1.15,0,0,1,246,46.7Zm0,3.78a1.11,1.11,0,0,1,.37-.87,1.4,1.4,0,0,1,1-.34,1.37,1.37,0,0,1,1,.33,1.13,1.13,0,0,1,.37.88,1.1,1.1,0,0,1-.37.88,1.58,1.58,0,0,1-2,0A1.11,1.11,0,0,1,246,50.48Z"/>
  <path class="cls-1" d="M19.43,74.35h1.64a.52.52,0,0,1,.39.13.46.46,0,0,1,.13.37.5.5,0,0,1-.12.37.79.79,0,0,1-.45.11H18a.6.6,0,0,1-.41-.12.53.53,0,0,1,0-.75h0a1.32,1.32,0,0,1,.65-.11h.13V67.26h-.1a1.32,1.32,0,0,1-.65-.11.43.43,0,0,1-.17-.38.45.45,0,0,1,.14-.36.6.6,0,0,1,.41-.12h1a.52.52,0,0,1,.3.06.27.27,0,0,1,.09.22v.66a3.12,3.12,0,0,1,1-.72,3.26,3.26,0,0,1,3.51.69,3.17,3.17,0,0,1,.92,2.33,3,3,0,0,1-2.92,3.08h-.13a3.54,3.54,0,0,1-1.33-.26,3,3,0,0,1-1-.73Zm2.12-2.74a2.16,2.16,0,0,0,1.56-.6,2,2,0,0,0,.61-1.54,2.06,2.06,0,0,0-.61-1.54,2.16,2.16,0,0,0-1.56-.6A2.18,2.18,0,0,0,20,71,2.12,2.12,0,0,0,21.55,71.61Z"/>
  <path class="cls-1" d="M28.93,71.61H31.2a.6.6,0,0,1,.39.11.49.49,0,0,1,.13.36.51.51,0,0,1-.12.39.68.68,0,0,1-.44.1H26.68a.58.58,0,0,1-.4-.12.47.47,0,0,1-.14-.37.4.4,0,0,1,.15-.35.67.67,0,0,1,.43-.12h1.19V67.25h-.47a1.76,1.76,0,0,1-.82-.11.4.4,0,0,1-.17-.38.43.43,0,0,1,.14-.35.58.58,0,0,1,.4-.12h1.56a.45.45,0,0,1,.28.07.23.23,0,0,1,.1.21v1.16a4.72,4.72,0,0,1,1.35-1.21,3,3,0,0,1,1.52-.4,1.76,1.76,0,0,1,1,.25.73.73,0,0,1,.38.63.6.6,0,0,1-.19.44.54.54,0,0,1-.41.2,1.28,1.28,0,0,1-.53-.21,1.32,1.32,0,0,0-.67-.21,2.15,2.15,0,0,0-1.12.38A6.54,6.54,0,0,0,29,68.81Z"/>
  <path class="cls-1" d="M38.63,71.61h2.16a.6.6,0,0,1,.39.11.49.49,0,0,1,.13.36.51.51,0,0,1-.12.39.65.65,0,0,1-.4.14h-5.3a.6.6,0,0,1-.41-.12.47.47,0,0,1-.14-.37.4.4,0,0,1,.15-.35.67.67,0,0,1,.43-.12H37.6v-4.4H36.26a.59.59,0,0,1-.42-.13.56.56,0,0,1,0-.71.6.6,0,0,1,.41-.12h2a.5.5,0,0,1,.29.07.23.23,0,0,1,.1.21Zm-1.26-7.32a2,2,0,0,1,.13-.93c.09-.13.28-.19.57-.19s.47,0,.56.16a2.12,2.12,0,0,1,0,1.49.77.77,0,0,1-.57.14.94.94,0,0,1-.57-.13.76.76,0,0,1-.12-.51Z"/>
  <path class="cls-1" d="M43.86,71.61V67.26h-.13a1.28,1.28,0,0,1-.64-.11.44.44,0,0,1-.18-.38.43.43,0,0,1,.15-.37.69.69,0,0,1,.46-.11h1a.5.5,0,0,1,.29.07.28.28,0,0,1,.1.21V67a3.61,3.61,0,0,1,1-.68,2.29,2.29,0,0,1,1-.23,2.12,2.12,0,0,1,1.63.65,2.49,2.49,0,0,1,.59,1.77v3.07h.32a1,1,0,0,1,.5.11.44.44,0,0,1,.15.36.45.45,0,0,1-.16.38,1.06,1.06,0,0,1-.58.11H47.79a1,1,0,0,1-.56-.1.52.52,0,0,1-.13-.39.41.41,0,0,1,.15-.37,1,1,0,0,1,.54-.1H48V68.8a1.81,1.81,0,0,0-.32-1.19,1.26,1.26,0,0,0-1.05-.43,1.84,1.84,0,0,0-1.24.48,1.5,1.5,0,0,0-.53,1.17v2.78h.24a1,1,0,0,1,.55.1.41.41,0,0,1,.15.37.52.52,0,0,1-.13.39,1,1,0,0,1-.6.1H43.49a.63.63,0,0,1-.42-.12.47.47,0,0,1-.14-.37.38.38,0,0,1,.16-.37,1.2,1.2,0,0,1,.62-.1Z"/>
  <path class="cls-1" d="M56.67,66.67a.85.85,0,0,1,.49.12.41.41,0,0,1,.15.36.45.45,0,0,1-.14.36.64.64,0,0,1-.38.1H54V69.9a2.43,2.43,0,0,0,.29,1.47,1.21,1.21,0,0,0,1,.36,4,4,0,0,0,1.53-.34,4,4,0,0,1,1-.37.47.47,0,0,1,.45.47h0a.55.55,0,0,1-.16.39,1.78,1.78,0,0,1-.57.32,8.53,8.53,0,0,1-1.21.39,4.22,4.22,0,0,1-1,.13A3.24,3.24,0,0,1,54,72.46a1.71,1.71,0,0,1-.81-.76,1.69,1.69,0,0,1-.2-.57,5.6,5.6,0,0,1-.06-1V67.61h-1.1a.55.55,0,0,1-.41-.11.46.46,0,0,1-.13-.37.4.4,0,0,1,.17-.38,1.77,1.77,0,0,1,.76-.1H53V64.91a.69.69,0,0,1,.13-.44.51.51,0,0,1,.39-.14.48.48,0,0,1,.42.17,1.73,1.73,0,0,1,.12.78v1.39Z"/>
  <path class="cls-2" d="M64.59,64.61a1.93,1.93,0,0,1-.23.62c-.15.32-.27.57-.34.76a11.43,11.43,0,0,0-.66,2,8.73,8.73,0,0,0,0,3.6,8.14,8.14,0,0,0,.43,1.61c.12.31.27.66.47,1.07a2.87,2.87,0,0,1,.3.75.5.5,0,0,1-.06.24.23.23,0,0,1-.18.08.69.69,0,0,1-.47-.22,3.7,3.7,0,0,1-.6-.71,7.94,7.94,0,0,1-.23-8.8,5.33,5.33,0,0,1,.77-1,.92.92,0,0,1,.59-.32.23.23,0,0,1,.18.08A.33.33,0,0,1,64.59,64.61Z"/>
  <path class="cls-2" d="M70.32,66.61a.34.34,0,0,1-.25-.09.59.59,0,0,1-.1-.34l-.18-2.57h0a.37.37,0,0,1,.07-.25.3.3,0,0,1,.24-.08h.69a.29.29,0,0,1,.23.08.33.33,0,0,1,.08.25h0l-.31,2.57a.59.59,0,0,1-.1.34.3.3,0,0,1-.24.09Zm2.47,0a.34.34,0,0,1-.25-.09.67.67,0,0,1-.1-.34l-.26-2.57h0a.33.33,0,0,1,.08-.25.32.32,0,0,1,.23-.08h.66a.32.32,0,0,1,.23.08.33.33,0,0,1,.08.25h0l-.22,2.53a.59.59,0,0,1-.1.34.3.3,0,0,1-.24.09Z"/>
  <path class="cls-3" d="M86.64,70.85l1.15-4.08a.62.62,0,0,1,.14-.28.45.45,0,0,1,.28-.06h.31a.45.45,0,0,1,.28.06.41.41,0,0,1,.15.25l1.33,4.11L91,65.42H90a.83.83,0,0,1-.46-.11.4.4,0,0,1-.15-.35.43.43,0,0,1,.14-.36,1,1,0,0,1,.53-.1h2.2a.37.37,0,0,1,.27.13.5.5,0,0,1,.12.33.45.45,0,0,1-.13.35.6.6,0,0,1-.39.11H92l-1,6.83a.55.55,0,0,1-.07.28.23.23,0,0,1-.19.07h-.49a.5.5,0,0,1-.24-.06.47.47,0,0,1-.21-.23l-1.42-4.7-1.32,4.71a.4.4,0,0,1-.12.23.53.53,0,0,1-.25,0h-.51a.24.24,0,0,1-.2-.06.53.53,0,0,1-.09-.3l-1-6.82h-.09a.58.58,0,0,1-.4-.12.4.4,0,0,1-.14-.34.49.49,0,0,1,.11-.33.37.37,0,0,1,.27-.13h2.16a.94.94,0,0,1,.52.1.43.43,0,0,1,.14.36.4.4,0,0,1-.15.35.79.79,0,0,1-.45.11h-1Z"/>
  <path class="cls-3" d="M94.5,69.75a2.07,2.07,0,0,0,.66,1.52,2.48,2.48,0,0,0,1.68.54,4.21,4.21,0,0,0,1.74-.43A4.59,4.59,0,0,1,99.72,71a.47.47,0,0,1,.48.44h0a.55.55,0,0,1-.15.36,1.6,1.6,0,0,1-.45.32,7,7,0,0,1-1.41.51,5.87,5.87,0,0,1-1.45.17,3.48,3.48,0,0,1-2.5-.9,3.16,3.16,0,0,1-.93-2.38,3.2,3.2,0,0,1,1-2.44,3.6,3.6,0,0,1,2.58-.94,3.43,3.43,0,0,1,2.4.87,2.8,2.8,0,0,1,1,2.12.69.69,0,0,1-.16.52,1.77,1.77,0,0,1-.88.13Zm0-.9H99a2,2,0,0,0-.68-1.31,2.1,2.1,0,0,0-1.42-.49,2.46,2.46,0,0,0-1.53.47,2.29,2.29,0,0,0-.79,1.33Z"/>
  <path class="cls-3" d="M104.79,64.61h-1.2a2.14,2.14,0,0,1-.83-.11.43.43,0,0,1-.17-.38.47.47,0,0,1,.14-.37.61.61,0,0,1,.41-.13h2.25a.43.43,0,0,1,.29.08.23.23,0,0,1,.1.21v7.7h2.15a.57.57,0,0,1,.38.11.48.48,0,0,1,.12.36.51.51,0,0,1-.12.39.66.66,0,0,1-.43.1h-5a.6.6,0,0,1-.41-.12.47.47,0,0,1-.14-.37.4.4,0,0,1,.15-.35.67.67,0,0,1,.43-.12h1.88Z"/>
  <path class="cls-3" d="M115.67,66.7h0a.41.41,0,0,1,.13-.33.64.64,0,0,1,.4-.11.42.42,0,0,1,.39.17,1.39,1.39,0,0,1,.1.67v1.27a.48.48,0,0,1-.13.38.52.52,0,0,1-.39.13.51.51,0,0,1-.31-.11,1.31,1.31,0,0,1-.33-.44,2.25,2.25,0,0,0-.79-.83,2.16,2.16,0,0,0-1.08-.29,2.4,2.4,0,0,0-1.73.63,2.14,2.14,0,0,0-.67,1.63,2.27,2.27,0,0,0,.64,1.66,2.19,2.19,0,0,0,1.64.65,3,3,0,0,0,1.66-.51l.35-.25a1.25,1.25,0,0,1,.69-.36.45.45,0,0,1,.48.42v.06c0,.36-.34.72-1,1.1a4.44,4.44,0,0,1-2.17.56,3.37,3.37,0,0,1-2.49-5.72h0a3.39,3.39,0,0,1,2.46-1,4.23,4.23,0,0,1,1,.14A6.08,6.08,0,0,1,115.67,66.7Z"/>
  <path class="cls-3" d="M125.6,69.45a3.09,3.09,0,0,1-1,2.39,4.06,4.06,0,0,1-5.17,0,3.36,3.36,0,0,1,0-4.75h0a4.06,4.06,0,0,1,5.17,0A3.1,3.1,0,0,1,125.6,69.45ZM122,71.81a2.37,2.37,0,0,0,1.73-.67,2.47,2.47,0,0,0,0-3.39,2.53,2.53,0,0,0-3.44,0,2.5,2.5,0,0,0,0,3.4A2.36,2.36,0,0,0,122,71.81Z"/>
  <path class="cls-3" d="M133,68.8a3.43,3.43,0,0,0-.17-1.31.65.65,0,0,0-.6-.34.9.9,0,0,0-.8.44,2.14,2.14,0,0,0-.3,1.21v2.81h.13a1,1,0,0,1,.55.1.43.43,0,0,1,.14.37.5.5,0,0,1-.12.37.48.48,0,0,1-.36.12h-.86a.49.49,0,0,1-.4-.13,1.09,1.09,0,0,1-.11-.59V68.26a1.37,1.37,0,0,0-.23-.81.76.76,0,0,0-.64-.3,1,1,0,0,0-.56.19,1.41,1.41,0,0,0-.44.53v3.74h.25a1,1,0,0,1,.55.1.47.47,0,0,1,.14.37.6.6,0,0,1-.11.39.7.7,0,0,1-.45.1h-1.77a.55.55,0,0,1-.39-.12.46.46,0,0,1-.13-.37.38.38,0,0,1,.16-.37,1.2,1.2,0,0,1,.62-.1h.14V67.25h-.13a1.28,1.28,0,0,1-.64-.11.41.41,0,0,1-.18-.38.43.43,0,0,1,.14-.35.6.6,0,0,1,.41-.12h1c.15,0,.25,0,.29.07a.63.63,0,0,1,.09.33,1.68,1.68,0,0,1,1.33-.58,1.38,1.38,0,0,1,.79.21,1.19,1.19,0,0,1,.46.62,2,2,0,0,1,.66-.63,1.88,1.88,0,0,1,.87-.2,1.47,1.47,0,0,1,1.28.57,3.27,3.27,0,0,1,.41,1.86v3.07h.11a1,1,0,0,1,.56.1.41.41,0,0,1,.15.37.5.5,0,0,1-.13.37.48.48,0,0,1-.36.12h-.83a.5.5,0,0,1-.4-.16.8.8,0,0,1-.13-.52Z"/>
  <path class="cls-3" d="M136.5,69.75a2.08,2.08,0,0,0,.67,1.52,2.47,2.47,0,0,0,1.67.54,4.07,4.07,0,0,0,1.75-.43,4.59,4.59,0,0,1,1.14-.42.47.47,0,0,1,.34.13.43.43,0,0,1,.14.32.55.55,0,0,1-.15.36,1.65,1.65,0,0,1-.46.32,7,7,0,0,1-1.41.51,6.37,6.37,0,0,1-1.44.17,3.48,3.48,0,0,1-2.5-.9,3.12,3.12,0,0,1-.94-2.38,3.2,3.2,0,0,1,1-2.44,3.6,3.6,0,0,1,2.58-.94,3.38,3.38,0,0,1,2.39.87,2.77,2.77,0,0,1,.95,2.12.62.62,0,0,1-.16.52,1.72,1.72,0,0,1-.87.13Zm0-.9H141a2,2,0,0,0-.68-1.31,2.1,2.1,0,0,0-1.42-.49,2.4,2.4,0,0,0-1.53.47,2.23,2.23,0,0,0-.78,1.33Z"/>
  <path class="cls-3" d="M157.48,66.67a.78.78,0,0,1,.49.12.41.41,0,0,1,.16.36.44.44,0,0,1-.15.36.67.67,0,0,1-.43.12h-2.76v2.29a2.58,2.58,0,0,0,.29,1.47,1.21,1.21,0,0,0,1,.36,4,4,0,0,0,1.49-.36,4.52,4.52,0,0,1,1.07-.37.48.48,0,0,1,.46.46h0a.52.52,0,0,1-.17.39,1.78,1.78,0,0,1-.57.32,8.4,8.4,0,0,1-1.2.39,4.22,4.22,0,0,1-1,.13,3.31,3.31,0,0,1-1.35-.26,1.81,1.81,0,0,1-.81-.76,1.91,1.91,0,0,1-.19-.57,5.6,5.6,0,0,1-.06-1V67.61h-1.16a.57.57,0,0,1-.42-.11.5.5,0,0,1-.13-.37.41.41,0,0,1,.18-.38,1.77,1.77,0,0,1,.76-.1h.81V64.91a.58.58,0,0,1,.13-.44.51.51,0,0,1,.39-.14.48.48,0,0,1,.42.17,1.6,1.6,0,0,1,.11.78v1.39Z"/>
  <path class="cls-3" d="M167.61,69.45a3.09,3.09,0,0,1-1,2.39,4.07,4.07,0,0,1-5.18,0,3.38,3.38,0,0,1,0-4.78,4.1,4.1,0,0,1,5.18,0A3.13,3.13,0,0,1,167.61,69.45ZM164,71.81a2.37,2.37,0,0,0,1.73-.67,2.47,2.47,0,0,0,0-3.39,2.53,2.53,0,0,0-3.44,0,2.5,2.5,0,0,0,0,3.4A2.36,2.36,0,0,0,164,71.81Z"/>
  <path class="cls-3" d="M178.26,67.26a1.32,1.32,0,0,1-.11.65.51.51,0,0,1-.42.14.49.49,0,0,1-.36-.13.5.5,0,0,1-.12-.37v-.32l.07-2.26a.49.49,0,0,1,.13-.36.52.52,0,0,1,.38-.11h6a.52.52,0,0,1,.38.11.53.53,0,0,1,.13.36l.07,2.26v.38a.5.5,0,0,1-.13.37.55.55,0,0,1-.39.12.49.49,0,0,1-.38-.14,1.32,1.32,0,0,1-.12-.65l-.06-1.78h-2v6.08h1.32a.68.68,0,0,1,.42.11.49.49,0,0,1,.13.36.5.5,0,0,1-.12.37.47.47,0,0,1-.29.16H179a.48.48,0,0,1-.36-.12.5.5,0,0,1-.12-.37.41.41,0,0,1,.13-.36.75.75,0,0,1,.46-.11h1.28V65.48h-2Z"/>
  <path class="cls-3" d="M188.55,71.61h2.24a.64.64,0,0,1,.4.11.48.48,0,0,1,.12.36.51.51,0,0,1-.12.39.68.68,0,0,1-.44.1h-4.47a.58.58,0,0,1-.4-.12.47.47,0,0,1-.14-.37.43.43,0,0,1,.14-.35.67.67,0,0,1,.43-.12h1.19V67.25H187a1.8,1.8,0,0,1-.83-.11.4.4,0,0,1-.16-.38.42.42,0,0,1,.13-.35.6.6,0,0,1,.41-.12h1.56a.45.45,0,0,1,.28.07.27.27,0,0,1,.09.21v1.16a4.63,4.63,0,0,1,1.36-1.21,3.07,3.07,0,0,1,1.51-.4,1.76,1.76,0,0,1,1,.25.72.72,0,0,1,.37.63.6.6,0,0,1-.18.44.56.56,0,0,1-.42.2,1.28,1.28,0,0,1-.53-.21,1.42,1.42,0,0,0-.66-.21,2.18,2.18,0,0,0-1.13.38,6.54,6.54,0,0,0-1.31,1.21Z"/>
  <path class="cls-3" d="M198.26,71.61h2.19a.64.64,0,0,1,.4.11.48.48,0,0,1,.12.36.51.51,0,0,1-.12.39.68.68,0,0,1-.44.1h-5.29a.6.6,0,0,1-.41-.12.47.47,0,0,1-.14-.37.43.43,0,0,1,.14-.35.67.67,0,0,1,.43-.12h2.09V67.25h-1.34a.61.61,0,0,1-.43-.13.44.44,0,0,1-.15-.36.43.43,0,0,1,.14-.35.6.6,0,0,1,.41-.12h2a.5.5,0,0,1,.29.07.26.26,0,0,1,.11.21ZM197,64.29a2,2,0,0,1,.13-.93c.09-.13.28-.19.57-.19a.72.72,0,0,1,.56.16,2.12,2.12,0,0,1,0,1.49.77.77,0,0,1-.57.14.94.94,0,0,1-.57-.13.76.76,0,0,1-.12-.51Z"/>
  <path class="cls-3" d="M204.26,74.35h1.64a.52.52,0,0,1,.39.13.46.46,0,0,1,.13.37.5.5,0,0,1-.12.37.79.79,0,0,1-.45.11h-3a.6.6,0,0,1-.41-.12.53.53,0,0,1,0-.75h0a1.32,1.32,0,0,1,.65-.11h.13V67.26h-.13a1.32,1.32,0,0,1-.65-.11.43.43,0,0,1-.17-.38.45.45,0,0,1,.14-.36.6.6,0,0,1,.41-.12h1a.52.52,0,0,1,.3.06.27.27,0,0,1,.09.22v.66a3.12,3.12,0,0,1,1-.72,3.26,3.26,0,0,1,3.51.69,3.17,3.17,0,0,1,.92,2.33,3,3,0,0,1-2.92,3.08h-.16a3.54,3.54,0,0,1-1.33-.26,3,3,0,0,1-1-.73Zm2.12-2.74a2.16,2.16,0,0,0,1.56-.6,2,2,0,0,0,.61-1.54,2.06,2.06,0,0,0-.61-1.54,2.16,2.16,0,0,0-1.56-.6A2.18,2.18,0,0,0,204.79,71,2.09,2.09,0,0,0,206.38,71.61Z"/>
  <path class="cls-3" d="M216.48,66.7h0a.42.42,0,0,1,.13-.33.67.67,0,0,1,.41-.11.41.41,0,0,1,.38.17,1.4,1.4,0,0,1,.11.67v1.27a.48.48,0,0,1-.13.38.56.56,0,0,1-.39.13.52.52,0,0,1-.32-.11,1.71,1.71,0,0,1-.32-.44,2.27,2.27,0,0,0-.8-.83,2,2,0,0,0-1.08-.29,2.4,2.4,0,0,0-1.73.63,2.18,2.18,0,0,0-.66,1.63,2.27,2.27,0,0,0,.64,1.66,2.19,2.19,0,0,0,1.64.65,2.82,2.82,0,0,0,.87-.13,2.57,2.57,0,0,0,.78-.38c.12-.08.24-.16.35-.25a1.35,1.35,0,0,1,.7-.36.43.43,0,0,1,.34.13.5.5,0,0,1,.14.35c0,.36-.34.72-1,1.1a4.51,4.51,0,0,1-2.18.56,3.41,3.41,0,0,1-2.47-1,3.16,3.16,0,0,1-1-2.37,3.12,3.12,0,0,1,1-2.37,3.39,3.39,0,0,1,2.46-1,3.77,3.77,0,0,1,1,.14A6.7,6.7,0,0,1,216.48,66.7Z"/>
  <path class="cls-3" d="M224.4,71.73a4.23,4.23,0,0,1-1.22.78,3.5,3.5,0,0,1-1.36.26,2.33,2.33,0,0,1-1.64-.56,2.08,2.08,0,0,1,0-2.94l.24-.21a4,4,0,0,1,2.34-.6,7.16,7.16,0,0,1,.8.05,3.39,3.39,0,0,1,.83.16h0a1.34,1.34,0,0,0-1-1.58h0a1.46,1.46,0,0,0-.51,0,3.05,3.05,0,0,0-1.19.28,3,3,0,0,1-.87.29.39.39,0,0,1-.32-.16.61.61,0,0,1-.13-.41q0-.41.75-.69a5.75,5.75,0,0,1,1.93-.28,2.48,2.48,0,0,1,1.82.61,2.45,2.45,0,0,1,.62,1.81v3.07h.39a1.31,1.31,0,0,1,.65.1.38.38,0,0,1,.16.37.5.5,0,0,1-.13.37.6.6,0,0,1-.41.12H225a.51.51,0,0,1-.31-.11.54.54,0,0,1-.16-.34Zm-.05-2.12a4.58,4.58,0,0,0-.73-.18,4.14,4.14,0,0,0-.7-.06,3.18,3.18,0,0,0-1.66.36,1,1,0,0,0-.61,1,.91.91,0,0,0,.38.77,1.5,1.5,0,0,0,1,.3,3,3,0,0,0,1.61-.45c.5-.31.75-.62.75-1Z"/>
  <path class="cls-3" d="M233.29,72.61c-.1,0-.17,0-.2-.07a.45.45,0,0,1-.06-.28V71.7a2.88,2.88,0,0,1-1,.8,3.06,3.06,0,0,1-1.33.28,2.84,2.84,0,0,1-2.16-.92,3.12,3.12,0,0,1-.88-2.28,3.21,3.21,0,0,1,.93-2.36,3.15,3.15,0,0,1,2.32-.94,3.23,3.23,0,0,1,1.27.25,2.62,2.62,0,0,1,1,.74V64.61h-.39a1.85,1.85,0,0,1-.77-.11.41.41,0,0,1-.18-.38.47.47,0,0,1,.14-.37.61.61,0,0,1,.41-.13h1.4a.53.53,0,0,1,.3.07.27.27,0,0,1,.09.22v7.7h.31a.89.89,0,0,1,.48.11.41.41,0,0,1,.16.36.49.49,0,0,1-.13.36.45.45,0,0,1-.35.13Zm-4.5-3.08a2.09,2.09,0,0,0,.61,1.55,2.11,2.11,0,0,0,1.54.6,2,2,0,0,0,1.55-.63,2.35,2.35,0,0,0,0-3.15,2.15,2.15,0,0,0-3.7,1.63Z"/>
  <path class="cls-3" d="M237.32,69.75a2.08,2.08,0,0,0,.67,1.52,2.42,2.42,0,0,0,1.67.54,4.21,4.21,0,0,0,1.74-.43,4.59,4.59,0,0,1,1.14-.42.46.46,0,0,1,.48.45.54.54,0,0,1-.14.36,1.65,1.65,0,0,1-.46.32,7,7,0,0,1-1.41.51,5.87,5.87,0,0,1-1.45.17,3.42,3.42,0,0,1-2.49-.9,3.12,3.12,0,0,1-.94-2.38,3.2,3.2,0,0,1,1-2.44,3.59,3.59,0,0,1,2.59-.94,3.38,3.38,0,0,1,2.39.87,2.8,2.8,0,0,1,1,2.12.62.62,0,0,1-.16.52,1.85,1.85,0,0,1-.87.13h-4.76Zm0-.9h4.47a2,2,0,0,0-.67-1.31,2.1,2.1,0,0,0-1.42-.49,2.44,2.44,0,0,0-1.54.47,2.32,2.32,0,0,0-.81,1.33Z"/>
  <path class="cls-3" d="M250.57,68.8a3.25,3.25,0,0,0-.18-1.31.61.61,0,0,0-.59-.34.9.9,0,0,0-.8.44,2.14,2.14,0,0,0-.3,1.21v2.81h.09a1,1,0,0,1,.56.1.43.43,0,0,1,.14.37.5.5,0,0,1-.12.37.48.48,0,0,1-.36.12h-.86a.49.49,0,0,1-.4-.13,1.09,1.09,0,0,1-.11-.59V68.26a1.37,1.37,0,0,0-.23-.81.76.76,0,0,0-.64-.3,1,1,0,0,0-.56.19,1.41,1.41,0,0,0-.44.53v3.74H246a1,1,0,0,1,.55.1.47.47,0,0,1,.14.37.51.51,0,0,1-.12.39.68.68,0,0,1-.44.1h-1.81a.58.58,0,0,1-.4-.12.5.5,0,0,1-.12-.37.38.38,0,0,1,.16-.37,1.2,1.2,0,0,1,.62-.1h.19V67.25h-.12a1.32,1.32,0,0,1-.65-.11.51.51,0,0,1,0-.72h0a.6.6,0,0,1,.41-.12h1a.45.45,0,0,1,.3.07.63.63,0,0,1,.09.33,2,2,0,0,1,.6-.44,1.83,1.83,0,0,1,.73-.14,1.38,1.38,0,0,1,.79.21,1.19,1.19,0,0,1,.46.62,2,2,0,0,1,.66-.63,1.84,1.84,0,0,1,.86-.2,1.46,1.46,0,0,1,1.29.57,3.27,3.27,0,0,1,.41,1.86v3.06h.11a1,1,0,0,1,.56.1.4.4,0,0,1,.14.37.5.5,0,0,1-.12.37.48.48,0,0,1-.36.12h-.83a.5.5,0,0,1-.4-.16.8.8,0,0,1-.13-.52Z"/>
  <path class="cls-3" d="M255.92,74.35h.3a1.4,1.4,0,0,1,.67.11.41.41,0,0,1,.18.39.45.45,0,0,1-.14.36.6.6,0,0,1-.41.12h-3.15a.79.79,0,0,1-.45-.11.5.5,0,0,1-.12-.37.46.46,0,0,1,.13-.37.53.53,0,0,1,.4-.13h1.46l1.11-2.18-2.51-4.92a1.2,1.2,0,0,1-.62-.11.54.54,0,0,1,0-.73.6.6,0,0,1,.41-.12h1.91a.81.81,0,0,1,.51.1.43.43,0,0,1,.13.37.4.4,0,0,1-.17.38,1.24,1.24,0,0,1-.63.11h-.25L256.53,71l1.89-3.77h-.27a1.32,1.32,0,0,1-.65-.11.54.54,0,0,1,0-.75.86.86,0,0,1,.52-.1h1.68a.63.63,0,0,1,.42.12.42.42,0,0,1,.13.35.43.43,0,0,1-.15.37,1,1,0,0,1-.53.12Z"/>
  <path class="cls-3" d="M263.56,71.67a1,1,0,0,1,.36-.78,1.56,1.56,0,0,1,1.84,0,1,1,0,0,1,.35.78,1,1,0,0,1-.35.79,1.34,1.34,0,0,1-.92.3,1.27,1.27,0,0,1-.92-.31A1,1,0,0,1,263.56,71.67ZM265.63,65l-.23,4.44a.58.58,0,0,1-.17.37.57.57,0,0,1-1-.37L264,65v-.07a.87.87,0,0,1,.21-.62.76.76,0,0,1,.59-.23.71.71,0,0,1,.58.23.87.87,0,0,1,.21.62Z"/>
  <path class="cls-2" d="M280.35,66.61a.34.34,0,0,1-.25-.09.67.67,0,0,1-.1-.34l-.21-2.57h0a.33.33,0,0,1,.08-.25.32.32,0,0,1,.23-.08h.69a.32.32,0,0,1,.23.08.37.37,0,0,1,.07.25h0l-.2,2.53a.67.67,0,0,1-.1.34.34.34,0,0,1-.25.09Zm2.44,0a.3.3,0,0,1-.24-.09.6.6,0,0,1-.11-.34l-.23-2.57h0a.33.33,0,0,1,.08-.25.32.32,0,0,1,.23-.08h.66a.32.32,0,0,1,.23.08.33.33,0,0,1,.08.25h0l-.21,2.53a.67.67,0,0,1-.1.34.34.34,0,0,1-.25.09Z"/>
  <path class="cls-2" d="M288.64,75a2.22,2.22,0,0,1,.24-.6c.15-.31.27-.56.35-.75a11.43,11.43,0,0,0,.66-2,8.69,8.69,0,0,0,0-3.59,10,10,0,0,0-.51-1.69c-.12-.3-.28-.66-.47-1.06a2.68,2.68,0,0,1-.3-.77.34.34,0,0,1,.07-.22.23.23,0,0,1,.18-.08.74.74,0,0,1,.48.22,3.7,3.7,0,0,1,.6.71,7.88,7.88,0,0,1,.24,8.82,6,6,0,0,1-.74,1,.88.88,0,0,1-.58.31.25.25,0,0,1-.18-.08A.41.41,0,0,1,288.64,75Z"/>
  <path class="cls-1" d="M19.43,95.35h1.64a.52.52,0,0,1,.39.13.46.46,0,0,1,.13.37.5.5,0,0,1-.12.37.79.79,0,0,1-.45.11H18a.6.6,0,0,1-.41-.12.53.53,0,0,1,0-.75h0a1.32,1.32,0,0,1,.65-.11h.13V88.26h-.1a1.32,1.32,0,0,1-.65-.11.43.43,0,0,1-.17-.38.45.45,0,0,1,.14-.36.6.6,0,0,1,.41-.12h1a.52.52,0,0,1,.3.06.27.27,0,0,1,.09.22v.66a3.12,3.12,0,0,1,1-.72,3.26,3.26,0,0,1,3.51.69,3.17,3.17,0,0,1,.92,2.33,3,3,0,0,1-2.92,3.08h-.13a3.54,3.54,0,0,1-1.33-.26,3,3,0,0,1-1-.73Zm2.12-2.74a2.16,2.16,0,0,0,1.56-.6,2,2,0,0,0,.61-1.54,2.06,2.06,0,0,0-.61-1.54,2.16,2.16,0,0,0-1.56-.6A2.18,2.18,0,0,0,20,92,2.12,2.12,0,0,0,21.55,92.61Z"/>
  <path class="cls-1" d="M28.93,92.61H31.2a.6.6,0,0,1,.39.11.49.49,0,0,1,.13.36.51.51,0,0,1-.12.39.68.68,0,0,1-.44.1H26.68a.58.58,0,0,1-.4-.12.47.47,0,0,1-.14-.37.4.4,0,0,1,.15-.35.67.67,0,0,1,.43-.12h1.19V88.22h-.47a1.76,1.76,0,0,1-.82-.11.4.4,0,0,1-.17-.38.43.43,0,0,1,.14-.35.58.58,0,0,1,.4-.12h1.56a.45.45,0,0,1,.28.07.23.23,0,0,1,.1.21V88.7a4.72,4.72,0,0,1,1.35-1.21,3,3,0,0,1,1.52-.4,1.76,1.76,0,0,1,1,.25.73.73,0,0,1,.38.63.6.6,0,0,1-.19.44.54.54,0,0,1-.41.2,1.28,1.28,0,0,1-.53-.21,1.32,1.32,0,0,0-.67-.21,2.15,2.15,0,0,0-1.12.38A6.54,6.54,0,0,0,29,89.78Z"/>
  <path class="cls-1" d="M38.63,92.61h2.16a.6.6,0,0,1,.39.11.49.49,0,0,1,.13.36.51.51,0,0,1-.12.39.68.68,0,0,1-.44.1H35.49a.6.6,0,0,1-.41-.12.47.47,0,0,1-.14-.37.4.4,0,0,1,.15-.35.67.67,0,0,1,.43-.12H37.6V88.22H36.26a.59.59,0,0,1-.42-.13.44.44,0,0,1-.15-.36.42.42,0,0,1,.13-.35.6.6,0,0,1,.41-.12h2a.5.5,0,0,1,.29.07.23.23,0,0,1,.1.21Zm-1.26-7.32a2,2,0,0,1,.13-.93c.09-.13.28-.19.57-.19s.47,0,.56.16a2.12,2.12,0,0,1,0,1.49.77.77,0,0,1-.57.14.94.94,0,0,1-.57-.13.76.76,0,0,1-.12-.51Z"/>
  <path class="cls-1" d="M43.86,92.61V88.23h-.13a1.28,1.28,0,0,1-.64-.11.44.44,0,0,1-.18-.38.43.43,0,0,1,.15-.37.69.69,0,0,1,.46-.11h1a.5.5,0,0,1,.29.07.28.28,0,0,1,.1.21V88a3.61,3.61,0,0,1,1-.68,2.29,2.29,0,0,1,1-.23,2.12,2.12,0,0,1,1.63.65,2.49,2.49,0,0,1,.59,1.77v3.1h.32a1,1,0,0,1,.5.11.44.44,0,0,1,.15.36.45.45,0,0,1-.16.38,1.06,1.06,0,0,1-.58.11H47.79a1,1,0,0,1-.56-.1.52.52,0,0,1-.13-.39.41.41,0,0,1,.15-.37,1,1,0,0,1,.54-.1H48V89.77a1.83,1.83,0,0,0-.36-1.22,1.26,1.26,0,0,0-1.05-.43,1.84,1.84,0,0,0-1.24.48,1.5,1.5,0,0,0-.53,1.17v2.84h.24a1,1,0,0,1,.55.1.41.41,0,0,1,.15.37.52.52,0,0,1-.13.39,1,1,0,0,1-.6.1H43.49a.63.63,0,0,1-.42-.12.47.47,0,0,1-.14-.37.38.38,0,0,1,.16-.37,1.2,1.2,0,0,1,.62-.1Z"/>
  <path class="cls-1" d="M56.67,87.67a.85.85,0,0,1,.49.12.41.41,0,0,1,.15.36.45.45,0,0,1-.14.36.64.64,0,0,1-.38.1H54V90.9a2.43,2.43,0,0,0,.29,1.47,1.21,1.21,0,0,0,1,.36,4,4,0,0,0,1.49-.36A4.06,4.06,0,0,1,57.83,92a.47.47,0,0,1,.45.47h0a.55.55,0,0,1-.16.39,1.78,1.78,0,0,1-.57.32,8.53,8.53,0,0,1-1.21.39,4.22,4.22,0,0,1-1,.13A3.24,3.24,0,0,1,54,93.44a1.71,1.71,0,0,1-.81-.76,1.69,1.69,0,0,1-.2-.57,5.6,5.6,0,0,1-.06-1v-2.5H51.79a.55.55,0,0,1-.41-.11.46.46,0,0,1-.13-.37.4.4,0,0,1,.17-.38,1.77,1.77,0,0,1,.76-.1H53V85.91a.69.69,0,0,1,.13-.44.51.51,0,0,1,.39-.14.48.48,0,0,1,.42.17,1.73,1.73,0,0,1,.12.78v1.39Z"/>
  <path class="cls-2" d="M64.59,85.61a1.93,1.93,0,0,1-.23.62c-.15.32-.27.57-.34.76a11.43,11.43,0,0,0-.66,2,8.73,8.73,0,0,0,0,3.6,8.88,8.88,0,0,0,.49,1.67c.12.31.27.66.47,1.07a2.87,2.87,0,0,1,.3.75.5.5,0,0,1-.06.24.23.23,0,0,1-.18.08.69.69,0,0,1-.47-.22,3.7,3.7,0,0,1-.6-.71,7.9,7.9,0,0,1-.26-8.81,5.18,5.18,0,0,1,.74-1,.92.92,0,0,1,.59-.32.23.23,0,0,1,.18.08A.32.32,0,0,1,64.59,85.61Z"/>
  <path class="cls-2" d="M70.32,87.61a.34.34,0,0,1-.25-.09.59.59,0,0,1-.1-.34l-.18-2.57h0a.37.37,0,0,1,.07-.25.3.3,0,0,1,.24-.08h.69a.29.29,0,0,1,.23.08.33.33,0,0,1,.08.25h0l-.31,2.57a.59.59,0,0,1-.1.34.3.3,0,0,1-.24.09Zm2.47,0a.34.34,0,0,1-.25-.09.67.67,0,0,1-.1-.34l-.26-2.57h0a.33.33,0,0,1,.08-.25.32.32,0,0,1,.23-.08h.66a.32.32,0,0,1,.23.08.33.33,0,0,1,.08.25h0l-.22,2.53a.59.59,0,0,1-.1.34.3.3,0,0,1-.24.09Z"/>
  <path class="cls-3" d="M91,90.85a1.36,1.36,0,0,1,.11-.66c.06-.11.19-.16.39-.16a.49.49,0,0,1,.36.13.56.56,0,0,1,.13.39V93.1a.54.54,0,0,1-.13.37.49.49,0,0,1-.36.13H85.09a.44.44,0,0,1-.49-.36.29.29,0,0,1,0-.13.41.41,0,0,1,.15-.37,1.37,1.37,0,0,1,.66-.1h.86V86.48h-.86a1.36,1.36,0,0,1-.66-.11A.43.43,0,0,1,84.6,86a.48.48,0,0,1,.13-.38.6.6,0,0,1,.39-.11h3.67a.5.5,0,0,1,.37.12.46.46,0,0,1,.13.37.43.43,0,0,1-.15.38,1.4,1.4,0,0,1-.67.11H87.35v6.13H91Z"/>
  <path class="cls-3" d="M100.4,90.45a3.13,3.13,0,0,1-1,2.39,4.07,4.07,0,0,1-5.18,0,3.38,3.38,0,0,1,0-4.78,4.1,4.1,0,0,1,5.18,0A3.13,3.13,0,0,1,100.4,90.45Zm-3.61,2.36a2.31,2.31,0,0,0,1.72-.67,2.45,2.45,0,0,0,0-3.39,2.53,2.53,0,0,0-3.44,0,2.5,2.5,0,0,0,0,3.4A2.34,2.34,0,0,0,96.79,92.81Z"/>
  <path class="cls-3" d="M108.79,90.45a3.09,3.09,0,0,1-1,2.39,3.64,3.64,0,0,1-2.59.93,3.6,3.6,0,0,1-2.58-.93,3.36,3.36,0,0,1,0-4.75h0a4.06,4.06,0,0,1,5.17,0A3.12,3.12,0,0,1,108.79,90.45Zm-3.59,2.36a2.37,2.37,0,0,0,1.73-.67,2.47,2.47,0,0,0,0-3.39,2.53,2.53,0,0,0-3.44,0,2.5,2.5,0,0,0,0,3.4,2.34,2.34,0,0,0,1.72.66Z"/>
  <path class="cls-3" d="M112.37,91v2a.68.68,0,0,1-.12.44.34.34,0,0,1-.29.16H110.7a.58.58,0,0,1-.4-.12.47.47,0,0,1-.14-.37.38.38,0,0,1,.16-.37,1.49,1.49,0,0,1,.69-.1h.32v-7h-.28a1.74,1.74,0,0,1-.75-.11.41.41,0,0,1-.18-.38.47.47,0,0,1,.14-.37.61.61,0,0,1,.41-.13H112a.4.4,0,0,1,.28.08.26.26,0,0,1,.11.21v4.9l2-1.66A.89.89,0,0,1,114,88a.39.39,0,0,1-.11-.27.37.37,0,0,1,.15-.31.84.84,0,0,1,.44-.1h1.85a.64.64,0,0,1,.4.11.43.43,0,0,1,.14.35q0,.4-.66.48H116a1.69,1.69,0,0,0-.62.21,4.54,4.54,0,0,0-.67.48l-1,.87,2.59,2.82h.59a.68.68,0,0,1,.42.11.59.59,0,0,1,0,.73.58.58,0,0,1-.4.12h-1.86a.72.72,0,0,1-.43-.1.38.38,0,0,1-.14-.33.42.42,0,0,1,.13-.32,1,1,0,0,1,.4-.21l-2-2.22Z"/>
  <path class="cls-3" d="M119,93.11V91.89a.73.73,0,0,1,.11-.43.5.5,0,0,1,.37-.13c.19,0,.33.13.44.39a2.33,2.33,0,0,0,.2.34,2,2,0,0,0,.85.6,3.53,3.53,0,0,0,1.24.22,2,2,0,0,0,1.16-.3.89.89,0,0,0,.44-.77.74.74,0,0,0-.35-.69,2.64,2.64,0,0,0-1.21-.2h-.38a3.93,3.93,0,0,1-2.12-.49,1.56,1.56,0,0,1-.73-1.41,1.61,1.61,0,0,1,.74-1.41,3.51,3.51,0,0,1,2-.5,3.89,3.89,0,0,1,1.07.15l.57.15a.78.78,0,0,0,.29-.14.77.77,0,0,1,.42-.13.35.35,0,0,1,.34.17.9.9,0,0,1,.12.51v.8a1.08,1.08,0,0,1-.11.53.39.39,0,0,1-.35.16c-.14,0-.31-.12-.51-.35a4,4,0,0,0-.35-.36,2.3,2.3,0,0,0-.77-.49,3.06,3.06,0,0,0-1-.14,1.78,1.78,0,0,0-1,.28.87.87,0,0,0-.39.72.64.64,0,0,0,.4.62,5.69,5.69,0,0,0,1.74.21,4,4,0,0,1,2.08.49,1.66,1.66,0,0,1,.65,1.43,1.76,1.76,0,0,1-.72,1.48,3.17,3.17,0,0,1-2,.55,5.1,5.1,0,0,1-.87-.07,6.08,6.08,0,0,1-1.2-.24,3.3,3.3,0,0,1-.41.23.74.74,0,0,1-.29.08.42.42,0,0,1-.36-.17A.72.72,0,0,1,119,93.11Z"/>
  <path class="cls-3" d="M138.36,85.61h-1.17a2.14,2.14,0,0,1-.83-.11.4.4,0,0,1-.16-.38.47.47,0,0,1,.14-.37.58.58,0,0,1,.4-.13H139a.51.51,0,0,1,.29.08.28.28,0,0,1,.1.21v7.7h2.15a.57.57,0,0,1,.38.11.52.52,0,0,1,.11.36.5.5,0,0,1-.11.39.68.68,0,0,1-.44.1h-5a.6.6,0,0,1-.41-.12.47.47,0,0,1-.14-.37.43.43,0,0,1,.14-.35.67.67,0,0,1,.43-.12h1.9Z"/>
  <path class="cls-3" d="M147.85,92.61h2.2a.6.6,0,0,1,.39.11.49.49,0,0,1,.13.36.51.51,0,0,1-.12.39.68.68,0,0,1-.44.1h-5.3a.6.6,0,0,1-.41-.12.47.47,0,0,1-.14-.37.43.43,0,0,1,.14-.35.67.67,0,0,1,.43-.12h2.06V88.22h-1.34a.61.61,0,0,1-.43-.13.45.45,0,0,1-.14-.36.42.42,0,0,1,.13-.35.6.6,0,0,1,.41-.12h2a.5.5,0,0,1,.29.07.23.23,0,0,1,.1.21Zm-1.26-7.32a2,2,0,0,1,.13-.93c.09-.13.28-.19.57-.19a.72.72,0,0,1,.56.16,1.33,1.33,0,0,1,.14.76,1.23,1.23,0,0,1-.13.73.77.77,0,0,1-.57.14.94.94,0,0,1-.57-.13.77.77,0,0,1-.13-.51Z"/>
  <path class="cls-3" d="M154.37,91v2a.76.76,0,0,1-.11.44.34.34,0,0,1-.29.16h-1.26a.6.6,0,0,1-.41-.12.5.5,0,0,1-.13-.37.38.38,0,0,1,.16-.37,1.45,1.45,0,0,1,.68-.1h.33v-7h-.28a1.78,1.78,0,0,1-.76-.11.43.43,0,0,1-.17-.38.47.47,0,0,1,.14-.37.61.61,0,0,1,.41-.13H154a.43.43,0,0,1,.29.08.23.23,0,0,1,.1.21v4.9l2-1.66A.89.89,0,0,1,156,88a.39.39,0,0,1-.11-.27.35.35,0,0,1,.15-.31.75.75,0,0,1,.44-.1h1.85a.64.64,0,0,1,.4.11.45.45,0,0,1,.13.35q0,.4-.66.48H158a1.69,1.69,0,0,0-.62.21,4.63,4.63,0,0,0-.68.48l-1,.87,2.59,2.82h.59a.68.68,0,0,1,.42.11.41.41,0,0,1,.13.36.47.47,0,0,1-.14.37.6.6,0,0,1-.41.12h-1.85a.75.75,0,0,1-.44-.1.41.41,0,0,1-.13-.33.42.42,0,0,1,.13-.32,1,1,0,0,1,.4-.21l-2-2.22Z"/>
  <path class="cls-3" d="M161.71,90.75a2.08,2.08,0,0,0,.67,1.52,2.42,2.42,0,0,0,1.67.54,4.21,4.21,0,0,0,1.74-.43,4.59,4.59,0,0,1,1.14-.42.47.47,0,0,1,.48.44h0a.54.54,0,0,1-.14.36,1.65,1.65,0,0,1-.46.32,7,7,0,0,1-1.41.51,5.87,5.87,0,0,1-1.45.17,3.42,3.42,0,0,1-2.49-.9,3.12,3.12,0,0,1-.94-2.38,3.2,3.2,0,0,1,1-2.44,3.6,3.6,0,0,1,2.58-.94,3.43,3.43,0,0,1,2.4.87,2.8,2.8,0,0,1,1,2.12.69.69,0,0,1-.16.52,1.77,1.77,0,0,1-.88.13Zm0-.9h4.45a2,2,0,0,0-.68-1.31,2.1,2.1,0,0,0-1.42-.49,2.46,2.46,0,0,0-1.53.47,2.34,2.34,0,0,0-.74,1.33Z"/>
  <path class="cls-3" d="M180.31,95.35h.29a1.44,1.44,0,0,1,.68.11.41.41,0,0,1,.18.39.45.45,0,0,1-.14.36.6.6,0,0,1-.41.12h-3.12a.79.79,0,0,1-.45-.11.5.5,0,0,1-.13-.37.47.47,0,0,1,.14-.37.53.53,0,0,1,.4-.13h1.48l1.11-2.18-2.55-4.92a1.2,1.2,0,0,1-.62-.11.51.51,0,0,1,0-.72h0a.6.6,0,0,1,.41-.12h1.91a.9.9,0,0,1,.51.1.54.54,0,0,1,0,.75,1.24,1.24,0,0,1-.63.11h-.25L181,92l1.89-3.77h-.27a1.32,1.32,0,0,1-.65-.11.41.41,0,0,1-.18-.38.5.5,0,0,1,.13-.37.94.94,0,0,1,.52-.1h1.69a.63.63,0,0,1,.42.12.45.45,0,0,1,.13.35.43.43,0,0,1-.15.37,1,1,0,0,1-.54.12Z"/>
  <path class="cls-3" d="M192.79,90.45a3.09,3.09,0,0,1-1,2.39,4.06,4.06,0,0,1-5.17,0,3.36,3.36,0,0,1,0-4.75h0a4.06,4.06,0,0,1,5.17,0A3.1,3.1,0,0,1,192.79,90.45Zm-3.59,2.36a2.37,2.37,0,0,0,1.73-.67,2.49,2.49,0,0,0,0-3.39,2.42,2.42,0,0,0-3.45,3.4,2.33,2.33,0,0,0,1.74.66Z"/>
  <path class="cls-3" d="M195.92,91.08a1.83,1.83,0,0,0,.36,1.26,1.52,1.52,0,0,0,1.15.39,1.88,1.88,0,0,0,1.28-.47,1.52,1.52,0,0,0,.53-1.18V88.25h-.94a.57.57,0,0,1-.38-.11.44.44,0,0,1-.12-.35.53.53,0,0,1,.12-.38.63.63,0,0,1,.42-.12h1.45a.44.44,0,0,1,.36.11,1,1,0,0,1,.11.55v4.66h.31a.93.93,0,0,1,.49.11.43.43,0,0,1,.14.36.47.47,0,0,1-.14.37.58.58,0,0,1-.4.12h-1a.5.5,0,0,1-.29-.07.23.23,0,0,1-.1-.21v-.46a5.27,5.27,0,0,1-1.13.69,2.47,2.47,0,0,1-1,.19,2.22,2.22,0,0,1-1.7-.6,2.58,2.58,0,0,1-.56-1.81V88.22h-.09a1.28,1.28,0,0,1-.64-.11.52.52,0,0,1,0-.73.63.63,0,0,1,.42-.12h1a.47.47,0,0,1,.33.09.65.65,0,0,1,.09.43Z"/>
  <path class="cls-3" d="M205.94,87.61a.3.3,0,0,1-.24-.09.6.6,0,0,1-.11-.34l-.21-2.53h0a.34.34,0,0,1,.09-.25.32.32,0,0,1,.23-.08h.65a.29.29,0,0,1,.32.23.17.17,0,0,1,0,.1h0l-.21,2.53a.59.59,0,0,1-.1.34.29.29,0,0,1-.25.09Z"/>
  <path class="cls-3" d="M213.79,92.61h2.27a.6.6,0,0,1,.39.11.49.49,0,0,1,.13.36.51.51,0,0,1-.12.39.68.68,0,0,1-.44.1h-4.48a.58.58,0,0,1-.4-.12.47.47,0,0,1-.14-.37.4.4,0,0,1,.15-.35.67.67,0,0,1,.43-.12h1.21V88.22h-.47a1.76,1.76,0,0,1-.82-.11.4.4,0,0,1-.17-.38.43.43,0,0,1,.14-.35.58.58,0,0,1,.4-.12h1.56a.45.45,0,0,1,.28.07.23.23,0,0,1,.1.21V88.7a4.72,4.72,0,0,1,1.35-1.21,3,3,0,0,1,1.52-.4,1.76,1.76,0,0,1,1,.25.73.73,0,0,1,.38.63.6.6,0,0,1-.19.44.54.54,0,0,1-.41.2,1.28,1.28,0,0,1-.53-.21,1.32,1.32,0,0,0-.67-.21,2.15,2.15,0,0,0-1.12.38,6.64,6.64,0,0,0-1.35,1.24Z"/>
  <path class="cls-3" d="M220.52,90.75a2.07,2.07,0,0,0,.66,1.52,2.48,2.48,0,0,0,1.68.54,4.21,4.21,0,0,0,1.74-.43,4.59,4.59,0,0,1,1.14-.42.47.47,0,0,1,.48.44h0a.54.54,0,0,1-.14.36,1.65,1.65,0,0,1-.46.32,7,7,0,0,1-1.41.51,5.87,5.87,0,0,1-1.45.17,3.48,3.48,0,0,1-2.5-.9,3.16,3.16,0,0,1-.93-2.38,3.2,3.2,0,0,1,1-2.44,3.6,3.6,0,0,1,2.58-.94,3.43,3.43,0,0,1,2.4.87,2.8,2.8,0,0,1,1,2.12.69.69,0,0,1-.16.52,1.77,1.77,0,0,1-.88.13Zm0-.9H225a2,2,0,0,0-.68-1.31,2.1,2.1,0,0,0-1.42-.49,2.46,2.46,0,0,0-1.53.47,2.29,2.29,0,0,0-.79,1.33Z"/>
  <path class="cls-3" d="M242.41,93.24a7.71,7.71,0,0,1-.09,1.36,2,2,0,0,1-.33.7,2.45,2.45,0,0,1-1.08.77,4.76,4.76,0,0,1-1.63.26,3.14,3.14,0,0,1-1.14-.15.5.5,0,0,1-.35-.48.48.48,0,0,1,.17-.37.57.57,0,0,1,.41-.16,5.42,5.42,0,0,1,.57,0h.58a1.9,1.9,0,0,0,1.44-.46,2.33,2.33,0,0,0,.42-1.6v-.82a2.78,2.78,0,0,1-.92.71,3.1,3.1,0,0,1-3.28-.63,3.19,3.19,0,0,1,0-4.33,2.91,2.91,0,0,1,2.14-.87,2.87,2.87,0,0,1,1,.2,4.18,4.18,0,0,1,1,.59v-.35a.27.27,0,0,1,.09-.22.49.49,0,0,1,.29-.06h1a.6.6,0,0,1,.41.12.49.49,0,0,1,.13.36.41.41,0,0,1-.17.38,1.24,1.24,0,0,1-.63.11h-.13Zm-3-4.94a2,2,0,0,0-1.46.55,1.94,1.94,0,0,0-.57,1.44,1.89,1.89,0,0,0,.57,1.42,2.18,2.18,0,0,0,2.92,0,1.89,1.89,0,0,0,.57-1.42,1.91,1.91,0,0,0-.57-1.43,2,2,0,0,0-1.43-.56Z"/>
  <path class="cls-3" d="M251.62,90.45a3.09,3.09,0,0,1-1,2.39,4.06,4.06,0,0,1-5.17,0,3.36,3.36,0,0,1,0-4.75h0a4.06,4.06,0,0,1,5.17,0A3.1,3.1,0,0,1,251.62,90.45ZM248,92.81a2.37,2.37,0,0,0,1.73-.67,2.49,2.49,0,0,0,0-3.39,2.42,2.42,0,0,0-3.45,3.4A2.38,2.38,0,0,0,248,92.81Z"/>
  <path class="cls-3" d="M257.07,92.61h2.19a.64.64,0,0,1,.4.11.48.48,0,0,1,.12.36.51.51,0,0,1-.12.39.68.68,0,0,1-.44.1h-5.3a.6.6,0,0,1-.41-.12.5.5,0,0,1-.13-.37.43.43,0,0,1,.14-.35.67.67,0,0,1,.43-.12H256V88.22H254.7a.61.61,0,0,1-.43-.13.44.44,0,0,1-.15-.36.43.43,0,0,1,.14-.35.6.6,0,0,1,.41-.12h2a.5.5,0,0,1,.29.07.26.26,0,0,1,.11.21Zm-1.28-7.29a2,2,0,0,1,.14-.93c.09-.13.28-.19.57-.19a.72.72,0,0,1,.56.16,2.12,2.12,0,0,1,0,1.49.77.77,0,0,1-.57.14.94.94,0,0,1-.57-.13A.8.8,0,0,1,255.79,85.32Z"/>
  <path class="cls-3" d="M262.29,92.61V88.23h-.13a1.28,1.28,0,0,1-.64-.11.43.43,0,0,1-.17-.38.47.47,0,0,1,.14-.37.72.72,0,0,1,.47-.11h1a.5.5,0,0,1,.29.07.23.23,0,0,1,.1.21V88a3.61,3.61,0,0,1,1-.68,2.29,2.29,0,0,1,1-.23,2.1,2.1,0,0,1,1.62.65,2.49,2.49,0,0,1,.59,1.77v3.1h.33a.93.93,0,0,1,.49.11.44.44,0,0,1,.15.36.4.4,0,0,1-.16.38,1,1,0,0,1-.57.11h-1.51a1,1,0,0,1-.57-.1.51.51,0,0,1-.12-.39.47.47,0,0,1,.14-.37,1,1,0,0,1,.55-.1h.24V89.77a1.83,1.83,0,0,0-.36-1.22,1.3,1.3,0,0,0-1.06-.43,1.79,1.79,0,0,0-1.23.48,1.48,1.48,0,0,0-.54,1.17v2.84h.24a1,1,0,0,1,.56.1.47.47,0,0,1,.14.37.51.51,0,0,1-.12.39,1,1,0,0,1-.6.1h-1.62a.63.63,0,0,1-.42-.12.47.47,0,0,1-.14-.37.44.44,0,0,1,.16-.37,1.37,1.37,0,0,1,.63-.1Z"/>
  <path class="cls-3" d="M276,93.24a6.19,6.19,0,0,1-.1,1.36,1.88,1.88,0,0,1-.33.7,2.42,2.42,0,0,1-1.07.77,4.76,4.76,0,0,1-1.63.26,3.14,3.14,0,0,1-1.14-.15.5.5,0,0,1-.36-.48.49.49,0,0,1,.18-.37.57.57,0,0,1,.41-.16h1.15a1.87,1.87,0,0,0,1.43-.46,2.28,2.28,0,0,0,.43-1.6v-.82a2.71,2.71,0,0,1-.93.71,3.08,3.08,0,0,1-3.27-.63,3.19,3.19,0,0,1,0-4.33,2.91,2.91,0,0,1,3.13-.67,4.18,4.18,0,0,1,1,.59v-.35a.27.27,0,0,1,.09-.22.49.49,0,0,1,.29-.06h1a.6.6,0,0,1,.41.12.45.45,0,0,1,.14.36.43.43,0,0,1-.17.38,1.28,1.28,0,0,1-.64.11h-.12Zm-3-4.94a2,2,0,0,0-1.47.55,1.94,1.94,0,0,0-.57,1.44,1.89,1.89,0,0,0,.57,1.42,2.21,2.21,0,0,0,2.93,0,2,2,0,0,0-1.29-3.42H273Z"/>
  <path class="cls-3" d="M291.91,87.67a.8.8,0,0,1,.48.12.41.41,0,0,1,.16.36.44.44,0,0,1-.15.36.67.67,0,0,1-.43.12h-2.76v2.29a2.43,2.43,0,0,0,.29,1.47,1.21,1.21,0,0,0,1,.36,4,4,0,0,0,1.49-.36,4.52,4.52,0,0,1,1.07-.37.48.48,0,0,1,.46.46h0a.52.52,0,0,1-.17.39,1.78,1.78,0,0,1-.57.32,8.4,8.4,0,0,1-1.2.39,4.22,4.22,0,0,1-1,.13,3.24,3.24,0,0,1-1.34-.26,1.62,1.62,0,0,1-.81-.76,1.69,1.69,0,0,1-.2-.57,5.6,5.6,0,0,1-.06-1V88.61H287a.57.57,0,0,1-.42-.11.5.5,0,0,1-.13-.37.41.41,0,0,1,.18-.38,1.77,1.77,0,0,1,.76-.1h.77V85.91a.58.58,0,0,1,.13-.44.51.51,0,0,1,.39-.14.48.48,0,0,1,.42.17,1.73,1.73,0,0,1,.12.78v1.39Z"/>
  <path class="cls-3" d="M302,90.45a3.09,3.09,0,0,1-1,2.39,4.06,4.06,0,0,1-5.17,0,3.36,3.36,0,0,1,0-4.75h0a4.06,4.06,0,0,1,5.17,0A3.12,3.12,0,0,1,302,90.45Zm-3.59,2.36a2.37,2.37,0,0,0,1.73-.67,2.47,2.47,0,0,0,0-3.39,2.53,2.53,0,0,0-3.44,0,2.5,2.5,0,0,0,0,3.4A2.38,2.38,0,0,0,298.44,92.81Z"/>
  <path class="cls-3" d="M317.11,87.67a.85.85,0,0,1,.49.12.41.41,0,0,1,.15.36.45.45,0,0,1-.14.36.67.67,0,0,1-.43.12h-2.77v2.29a2.58,2.58,0,0,0,.29,1.47,1.21,1.21,0,0,0,1,.36,4,4,0,0,0,1.49-.36,4.06,4.06,0,0,1,1.08-.37.43.43,0,0,1,.32.14.48.48,0,0,1,.14.34.52.52,0,0,1-.17.39,1.78,1.78,0,0,1-.57.32,8.44,8.44,0,0,1-1.2.4,4.22,4.22,0,0,1-1,.13,3.24,3.24,0,0,1-1.34-.26,1.81,1.81,0,0,1-.81-.76,1.67,1.67,0,0,1-.19-.57,5.6,5.6,0,0,1-.06-1V88.61h-1.2a.55.55,0,0,1-.41-.11.46.46,0,0,1-.13-.37.41.41,0,0,1,.18-.38,1.75,1.75,0,0,1,.75-.1h.78V85.91a.68.68,0,0,1,.12-.44.53.53,0,0,1,.4-.14.46.46,0,0,1,.41.17,1.73,1.73,0,0,1,.12.78v1.39Z"/>
  <path class="cls-3" d="M321.07,92.61v-7h-.13a1.24,1.24,0,0,1-.63-.11.41.41,0,0,1-.18-.38.47.47,0,0,1,.14-.37.61.61,0,0,1,.41-.13h1a.4.4,0,0,1,.28.08.26.26,0,0,1,.11.21V88a3.61,3.61,0,0,1,1-.68,2.29,2.29,0,0,1,1-.23,2.1,2.1,0,0,1,1.62.65,2.49,2.49,0,0,1,.59,1.77v3.1h.33a.93.93,0,0,1,.49.11.41.41,0,0,1,.16.36.47.47,0,0,1-.14.37.6.6,0,0,1-.41.12h-1.83a.66.66,0,0,1-.43-.1.5.5,0,0,1-.11-.39c0-.18,0-.31.14-.37a1,1,0,0,1,.53-.1h.24V89.77a1.83,1.83,0,0,0-.36-1.22,1.3,1.3,0,0,0-1.06-.43,1.75,1.75,0,0,0-1.23.48,1.47,1.47,0,0,0-.53,1.17v2.84h.24a1,1,0,0,1,.55.1.4.4,0,0,1,.14.37.5.5,0,0,1-.11.39.66.66,0,0,1-.43.1h-1.82a.58.58,0,0,1-.4-.12.47.47,0,0,1-.14-.37.38.38,0,0,1,.17-.37,1.2,1.2,0,0,1,.62-.1Z"/>
  <path class="cls-3" d="M329.79,90.75a2.07,2.07,0,0,0,.66,1.52,2.47,2.47,0,0,0,1.67.54,4.07,4.07,0,0,0,1.75-.43A4.59,4.59,0,0,1,335,92a.47.47,0,0,1,.34.13.43.43,0,0,1,.14.32.55.55,0,0,1-.15.36,1.6,1.6,0,0,1-.45.32,7.07,7.07,0,0,1-1.42.51,5.79,5.79,0,0,1-1.44.17,3.48,3.48,0,0,1-2.5-.9,3.16,3.16,0,0,1-.93-2.38,3.2,3.2,0,0,1,1-2.44,3.6,3.6,0,0,1,2.58-.94,3.38,3.38,0,0,1,2.39.87,2.76,2.76,0,0,1,1,2.12.62.62,0,0,1-.16.52,1.72,1.72,0,0,1-.87.13Zm0-.9h4.45a2,2,0,0,0-.68-1.31,2.1,2.1,0,0,0-1.42-.49,2.46,2.46,0,0,0-1.53.47A2.28,2.28,0,0,0,329.79,89.85Z"/>
  <path class="cls-2" d="M347.56,87.61a.34.34,0,0,1-.25-.09.58.58,0,0,1-.09-.34L347,84.65h0a.33.33,0,0,1,.08-.25.32.32,0,0,1,.23-.08H348a.32.32,0,0,1,.23.08.37.37,0,0,1,.07.25h0l-.2,2.53a.67.67,0,0,1-.1.34.29.29,0,0,1-.25.09Zm2.42,0a.3.3,0,0,1-.24-.09.6.6,0,0,1-.11-.34l-.21-2.53h0a.33.33,0,0,1,.08-.25.32.32,0,0,1,.23-.08h.66a.32.32,0,0,1,.23.08.33.33,0,0,1,.08.25h0l-.21,2.53a.67.67,0,0,1-.1.34.29.29,0,0,1-.25.09Z"/>
  <path class="cls-2" d="M366.16,88.78h2.48a.58.58,0,0,1,.39.15.51.51,0,0,1,.15.37.44.44,0,0,1-.15.36.62.62,0,0,1-.39.14h-2.48v2.56a.63.63,0,0,1-.14.4.5.5,0,0,1-.71,0l0,0a.54.54,0,0,1-.15-.38V89.82h-2.47a.62.62,0,0,1-.39-.14.48.48,0,0,1-.16-.36.53.53,0,0,1,.17-.36.55.55,0,0,1,.38-.16h2.47V86.25a.53.53,0,0,1,.14-.4.51.51,0,0,1,.37-.15.46.46,0,0,1,.37.15.53.53,0,0,1,.14.4Z"/>
  <path class="cls-3" d="M384.51,93.61a.25.25,0,0,1-.2-.07.45.45,0,0,1-.06-.28V92.7a2.69,2.69,0,0,1-1,.8,3.1,3.1,0,0,1-1.34.28,2.84,2.84,0,0,1-2.16-.92,3.44,3.44,0,0,1,.06-4.64,3.34,3.34,0,0,1,3.58-.69,2.52,2.52,0,0,1,1,.74V85.61H384a1.85,1.85,0,0,1-.77-.11.43.43,0,0,1-.17-.38.47.47,0,0,1,.14-.37.61.61,0,0,1,.41-.13H385a.59.59,0,0,1,.29.07.23.23,0,0,1,.1.22v7.7h.3a.93.93,0,0,1,.49.11.44.44,0,0,1,.15.36.49.49,0,0,1-.13.36.45.45,0,0,1-.35.13ZM380,90.54a2.06,2.06,0,0,0,2,2.15h.2a2.07,2.07,0,0,0,1.55-.63,2.34,2.34,0,0,0,0-3.15,2.1,2.1,0,0,0-1.55-.62,2.07,2.07,0,0,0-1.56.63,2.22,2.22,0,0,0-.6,1.61Z"/>
  <path class="cls-3" d="M388.55,90.75a2.07,2.07,0,0,0,.66,1.52,2.47,2.47,0,0,0,1.67.54,4.07,4.07,0,0,0,1.75-.43,4.59,4.59,0,0,1,1.14-.42.47.47,0,0,1,.34.13.43.43,0,0,1,.14.32.55.55,0,0,1-.15.36,1.65,1.65,0,0,1-.46.32,7,7,0,0,1-1.41.51,5.79,5.79,0,0,1-1.44.17,3.48,3.48,0,0,1-2.5-.9,3.16,3.16,0,0,1-.93-2.38,3.2,3.2,0,0,1,1-2.44,3.6,3.6,0,0,1,2.58-.94,3.38,3.38,0,0,1,2.39.87,2.76,2.76,0,0,1,1,2.12.62.62,0,0,1-.16.52,1.72,1.72,0,0,1-.87.13Zm0-.9H393a2,2,0,0,0-.68-1.31,2.1,2.1,0,0,0-1.42-.49,2.46,2.46,0,0,0-1.53.47,2.29,2.29,0,0,0-.79,1.33Z"/>
  <path class="cls-3" d="M396.28,93.11V91.89a.6.6,0,0,1,.11-.43.5.5,0,0,1,.37-.13c.18,0,.33.13.44.39a1.45,1.45,0,0,0,.2.34,2,2,0,0,0,.85.6,3.43,3.43,0,0,0,1.23.22,2,2,0,0,0,1.16-.3.87.87,0,0,0,.44-.77.73.73,0,0,0-.35-.69,2.64,2.64,0,0,0-1.21-.2h-.37a4,4,0,0,1-2.13-.49,1.56,1.56,0,0,1-.73-1.41,1.6,1.6,0,0,1,.72-1.4,3.44,3.44,0,0,1,2-.5,3.89,3.89,0,0,1,1.07.15l.58.15a1.11,1.11,0,0,0,.29-.14.74.74,0,0,1,.41-.13.4.4,0,0,1,.35.17,1,1,0,0,1,.11.51v.8a1.08,1.08,0,0,1-.11.53.39.39,0,0,1-.35.16c-.13,0-.3-.12-.5-.35a4,4,0,0,0-.35-.36,2.3,2.3,0,0,0-.77-.49,3.06,3.06,0,0,0-1-.14,1.78,1.78,0,0,0-1,.28.86.86,0,0,0-.4.72.65.65,0,0,0,.41.62,5.62,5.62,0,0,0,1.73.21,4,4,0,0,1,2.08.49,1.63,1.63,0,0,1,.66,1.43,1.74,1.74,0,0,1-.73,1.48,3.09,3.09,0,0,1-1.95.55,5.1,5.1,0,0,1-.87-.07q-.48-.07-1.2-.24a3.3,3.3,0,0,1-.41.23,1,1,0,0,1-.29.08.45.45,0,0,1-.37-.17A.8.8,0,0,1,396.28,93.11Z"/>
  <path class="cls-3" d="M409.52,87.67a.78.78,0,0,1,.49.12.41.41,0,0,1,.16.36.44.44,0,0,1-.15.36.67.67,0,0,1-.43.12h-2.8v2.29a2.44,2.44,0,0,0,.3,1.47,1.21,1.21,0,0,0,1,.36,4,4,0,0,0,1.49-.36,4.52,4.52,0,0,1,1.07-.37.48.48,0,0,1,.46.46h0a.52.52,0,0,1-.17.39,1.78,1.78,0,0,1-.57.32,8.4,8.4,0,0,1-1.2.39,4.22,4.22,0,0,1-1,.13,3.24,3.24,0,0,1-1.34-.26,1.73,1.73,0,0,1-.82-.76,1.91,1.91,0,0,1-.19-.57,5.6,5.6,0,0,1-.06-1V88.61H404.6a.57.57,0,0,1-.42-.11.5.5,0,0,1-.13-.37.41.41,0,0,1,.18-.38,1.77,1.77,0,0,1,.76-.1h.8V85.91a.58.58,0,0,1,.13-.44.51.51,0,0,1,.39-.14.48.48,0,0,1,.42.17,1.6,1.6,0,0,1,.11.78v1.39Z"/>
  <path class="cls-3" d="M416.7,92.61h2.19a.6.6,0,0,1,.39.11.49.49,0,0,1,.13.36.51.51,0,0,1-.12.39.68.68,0,0,1-.44.1h-5.3a.6.6,0,0,1-.41-.12.47.47,0,0,1-.14-.37.4.4,0,0,1,.15-.35.67.67,0,0,1,.43-.12h2.08V88.22h-1.33a.61.61,0,0,1-.43-.13.44.44,0,0,1-.15-.36.43.43,0,0,1,.14-.35.6.6,0,0,1,.41-.12h2a.5.5,0,0,1,.29.07.26.26,0,0,1,.11.21Zm-1.27-7.32a2.1,2.1,0,0,1,.13-.93c.09-.13.28-.19.57-.19a.74.74,0,0,1,.57.16,1.34,1.34,0,0,1,.13.76,1.32,1.32,0,0,1-.12.73.91.91,0,0,1-.58.14.94.94,0,0,1-.57-.13.83.83,0,0,1-.13-.51Z"/>
  <path class="cls-3" d="M421.92,92.61V88.23h-.13a1.28,1.28,0,0,1-.64-.11.44.44,0,0,1-.18-.38.43.43,0,0,1,.15-.37.69.69,0,0,1,.46-.11h1a.5.5,0,0,1,.29.07.23.23,0,0,1,.1.21V88a3.61,3.61,0,0,1,1-.68,2.29,2.29,0,0,1,1-.23,2.12,2.12,0,0,1,1.63.65,2.49,2.49,0,0,1,.59,1.77v3.1h.32a1,1,0,0,1,.5.11.44.44,0,0,1,.15.36.4.4,0,0,1-.16.38,1,1,0,0,1-.57.11h-1.54a1,1,0,0,1-.56-.1.51.51,0,0,1-.12-.39.47.47,0,0,1,.14-.37,1,1,0,0,1,.54-.1h.25V89.77a1.77,1.77,0,0,0-.35-1.16,1.26,1.26,0,0,0-1.05-.43,1.84,1.84,0,0,0-1.24.48,1.5,1.5,0,0,0-.53,1.17v2.78h.24a1,1,0,0,1,.55.1.41.41,0,0,1,.15.37.47.47,0,0,1-.13.39,1,1,0,0,1-.6.1h-1.61a.63.63,0,0,1-.42-.12.47.47,0,0,1-.14-.37.38.38,0,0,1,.16-.37,1.33,1.33,0,0,1,.62-.1Z"/>
  <path class="cls-3" d="M434.43,92.73a4.18,4.18,0,0,1-1.21.78,3.7,3.7,0,0,1-1.36.26,2.37,2.37,0,0,1-1.65-.56,2.1,2.1,0,0,1,0-3l0,0,.22-.19a3.9,3.9,0,0,1,2.33-.6,7.16,7.16,0,0,1,.8,0,3.39,3.39,0,0,1,.83.16h0a1.54,1.54,0,0,0-.38-1.16,1.58,1.58,0,0,0-1.16-.37,3.05,3.05,0,0,0-1.19.28,3,3,0,0,1-.87.29.42.42,0,0,1-.33-.16.61.61,0,0,1-.13-.41c0-.27.25-.5.76-.69a5.75,5.75,0,0,1,1.93-.28A2.16,2.16,0,0,1,435.45,89a2.71,2.71,0,0,1,0,.57v3h.34a1.31,1.31,0,0,1,.65.1.38.38,0,0,1,.17.37.47.47,0,0,1-.14.37.6.6,0,0,1-.41.12H435a.52.52,0,0,1-.32-.11.6.6,0,0,1-.16-.34Zm-.05-2.15a4.58,4.58,0,0,0-.73-.18,4.14,4.14,0,0,0-.7-.06,3.28,3.28,0,0,0-1.66.36,1,1,0,0,0-.61,1,1,1,0,0,0,.38.77,1.56,1.56,0,0,0,1,.3,3,3,0,0,0,1.61-.45c.49-.31.74-.62.74-1Z"/>
  <path class="cls-3" d="M443.13,87.67a.85.85,0,0,1,.49.12.41.41,0,0,1,.15.36.45.45,0,0,1-.14.36.67.67,0,0,1-.43.12h-2.77v2.29a2.58,2.58,0,0,0,.29,1.47,1.21,1.21,0,0,0,1,.36,4,4,0,0,0,1.49-.36,4.12,4.12,0,0,1,1.07-.37.43.43,0,0,1,.32.14.48.48,0,0,1,.14.34.52.52,0,0,1-.17.39,1.78,1.78,0,0,1-.57.32,7.46,7.46,0,0,1-1.21.4,4.22,4.22,0,0,1-1,.13,3.24,3.24,0,0,1-1.34-.26,1.81,1.81,0,0,1-.81-.76,1.67,1.67,0,0,1-.19-.57,5.6,5.6,0,0,1-.06-1V88.61h-1.16a.57.57,0,0,1-.42-.11.46.46,0,0,1-.13-.37.41.41,0,0,1,.18-.38,1.75,1.75,0,0,1,.75-.1h.78V85.91a.68.68,0,0,1,.12-.44.53.53,0,0,1,.4-.14.46.46,0,0,1,.41.17,1.73,1.73,0,0,1,.12.78v1.39Z"/>
  <path class="cls-3" d="M450.3,92.61h2.2a.6.6,0,0,1,.39.11.48.48,0,0,1,.12.36.5.5,0,0,1-.11.39.7.7,0,0,1-.45.1h-5.29a.6.6,0,0,1-.41-.12.47.47,0,0,1-.14-.37.43.43,0,0,1,.14-.35.67.67,0,0,1,.43-.12h2.09V88.22h-1.34a.61.61,0,0,1-.43-.13.44.44,0,0,1-.15-.36.43.43,0,0,1,.14-.35.6.6,0,0,1,.41-.12h2a.53.53,0,0,1,.3.07.23.23,0,0,1,.1.21ZM449,85.29a2,2,0,0,1,.13-.93c.09-.13.28-.19.57-.19a.72.72,0,0,1,.56.16,1.33,1.33,0,0,1,.14.76,1.23,1.23,0,0,1-.13.73.77.77,0,0,1-.57.14.94.94,0,0,1-.57-.13.77.77,0,0,1-.13-.51Z"/>
  <path class="cls-3" d="M461.66,90.45a3.13,3.13,0,0,1-1,2.39,4.07,4.07,0,0,1-5.18,0,3.36,3.36,0,0,1,0-4.75h0a4.06,4.06,0,0,1,5.17,0A3.09,3.09,0,0,1,461.66,90.45Zm-3.59,2.36a2.35,2.35,0,0,0,1.72-.67,2.45,2.45,0,0,0,0-3.39,2.53,2.53,0,0,0-3.44,0,2.48,2.48,0,0,0,0,3.4A2.38,2.38,0,0,0,458.07,92.81Z"/>
  <path class="cls-3" d="M463.92,92.61V88.23h-.13a1.28,1.28,0,0,1-.64-.11.44.44,0,0,1-.18-.38.43.43,0,0,1,.15-.37.69.69,0,0,1,.46-.11h1a.45.45,0,0,1,.28.07.26.26,0,0,1,.11.21V88a3.61,3.61,0,0,1,1-.68,2.29,2.29,0,0,1,1-.23,2.1,2.1,0,0,1,1.62.65,2.49,2.49,0,0,1,.59,1.77v3.1h.33a.93.93,0,0,1,.49.11.41.41,0,0,1,.16.36.43.43,0,0,1-.17.38,1,1,0,0,1-.57.11h-1.51a1,1,0,0,1-.56-.1.47.47,0,0,1-.13-.39.41.41,0,0,1,.15-.37,1,1,0,0,1,.54-.1h.24V89.77a1.78,1.78,0,0,0-.36-1.16,1.3,1.3,0,0,0-1.06-.43,1.79,1.79,0,0,0-1.23.48,1.5,1.5,0,0,0-.53,1.17v2.78h.24a1,1,0,0,1,.55.1.4.4,0,0,1,.14.37.51.51,0,0,1-.12.39,1,1,0,0,1-.6.1h-1.61a.63.63,0,0,1-.42-.12.47.47,0,0,1-.14-.37.38.38,0,0,1,.16-.37,1.2,1.2,0,0,1,.62-.1Z"/>
  <path class="cls-2" d="M483.79,88.78h2.48a.54.54,0,0,1,.38.15.52.52,0,0,1,.16.37.44.44,0,0,1-.15.36.62.62,0,0,1-.39.14h-2.48v2.56a.63.63,0,0,1-.14.4.5.5,0,0,1-.71,0l0,0a.54.54,0,0,1-.15-.38V89.82h-2.48a.62.62,0,0,1-.39-.14.42.42,0,0,1-.16-.36.53.53,0,0,1,.17-.36.55.55,0,0,1,.38-.16h2.5V86.25a.53.53,0,0,1,.14-.4.51.51,0,0,1,.37-.15.46.46,0,0,1,.37.15.53.53,0,0,1,.14.4Z"/>
  <path class="cls-2" d="M498.79,87.61a.29.29,0,0,1-.25-.09.59.59,0,0,1-.1-.34l-.21-2.53h0a.37.37,0,0,1,.07-.25.3.3,0,0,1,.24-.08h.65a.29.29,0,0,1,.23.08.33.33,0,0,1,.08.25h0l-.21,2.53a.59.59,0,0,1-.1.34.3.3,0,0,1-.24.09Zm2.42,0a.29.29,0,0,1-.25-.09.67.67,0,0,1-.1-.34l-.21-2.53h0a.33.33,0,0,1,.08-.25.29.29,0,0,1,.23-.08h.66a.32.32,0,0,1,.23.08.33.33,0,0,1,.08.25h0l-.22,2.53a.59.59,0,0,1-.1.34.3.3,0,0,1-.24.09Z"/>
  <path class="cls-3" d="M518.79,87.67a.78.78,0,0,1,.49.12.41.41,0,0,1,.15.36.43.43,0,0,1-.14.36.67.67,0,0,1-.43.12h-2.77v2.29a2.58,2.58,0,0,0,.29,1.47,1.21,1.21,0,0,0,1,.36,4,4,0,0,0,1.49-.36,4.12,4.12,0,0,1,1.07-.37.47.47,0,0,1,.46.46v0a.52.52,0,0,1-.17.39,1.78,1.78,0,0,1-.57.32,8.53,8.53,0,0,1-1.21.39,3.76,3.76,0,0,1-1,.13,3.31,3.31,0,0,1-1.35-.26,1.81,1.81,0,0,1-.81-.76,1.91,1.91,0,0,1-.19-.57,5.6,5.6,0,0,1-.06-1V88.61h-1.25a.57.57,0,0,1-.42-.11.46.46,0,0,1-.13-.37.41.41,0,0,1,.18-.38,1.77,1.77,0,0,1,.76-.1H515V85.91a.58.58,0,0,1,.13-.44.51.51,0,0,1,.39-.14.48.48,0,0,1,.42.17,1.9,1.9,0,0,1,.11.78v1.39Z"/>
  <path class="cls-3" d="M528.87,90.45a3.13,3.13,0,0,1-1,2.39,4.07,4.07,0,0,1-5.18,0,3.38,3.38,0,0,1,0-4.78,4.1,4.1,0,0,1,5.18,0A3.13,3.13,0,0,1,528.87,90.45Zm-3.59,2.36a2.35,2.35,0,0,0,1.72-.67,2.45,2.45,0,0,0,0-3.39,2.53,2.53,0,0,0-3.44,0,2.48,2.48,0,0,0,0,3.4A2.38,2.38,0,0,0,525.28,92.81Z"/>
  <path class="cls-3" d="M535.79,93.61a.27.27,0,0,1-.21-.07.66.66,0,0,1,0-.28V92.7a2.88,2.88,0,0,1-1,.8,3.06,3.06,0,0,1-1.33.28,2.88,2.88,0,0,1-2.17-.92,3.44,3.44,0,0,1,.06-4.64,3.34,3.34,0,0,1,3.58-.69,2.62,2.62,0,0,1,1,.74V85.61h-.36a1.85,1.85,0,0,1-.77-.11.41.41,0,0,1-.18-.38.47.47,0,0,1,.14-.37.72.72,0,0,1,.24-.14h1.4a.53.53,0,0,1,.3.07.27.27,0,0,1,.09.22v7.71h.31a.89.89,0,0,1,.48.11.44.44,0,0,1,.15.36.49.49,0,0,1-.13.36.43.43,0,0,1-.34.13Zm-4.48-3.07a2.09,2.09,0,0,0,.61,1.55,2.11,2.11,0,0,0,1.54.6,2,2,0,0,0,1.55-.63,2.35,2.35,0,0,0,0-3.15,2.12,2.12,0,0,0-1.56-.62,2.07,2.07,0,0,0-1.56.63,2.24,2.24,0,0,0-.63,1.61Z"/>
  <path class="cls-3" d="M543.65,92.73a4.23,4.23,0,0,1-1.22.78,3.68,3.68,0,0,1-1.35.26,2.37,2.37,0,0,1-1.65-.56,2.1,2.1,0,0,1,0-3l0,0,.22-.19a3.9,3.9,0,0,1,2.33-.6,7.16,7.16,0,0,1,.8,0,3.39,3.39,0,0,1,.83.16h0a1.33,1.33,0,0,0-1.1-1.53h0a1.62,1.62,0,0,0-.44,0,3.05,3.05,0,0,0-1.19.28,2.91,2.91,0,0,1-.86.29.36.36,0,0,1-.33-.16.61.61,0,0,1-.13-.41q0-.41.75-.69a5.75,5.75,0,0,1,1.93-.28,2.48,2.48,0,0,1,1.82.61,2.45,2.45,0,0,1,.62,1.81v3H545a1.31,1.31,0,0,1,.65.1.38.38,0,0,1,.17.37.47.47,0,0,1-.14.37.6.6,0,0,1-.41.12h-1.08a.52.52,0,0,1-.32-.11.54.54,0,0,1-.16-.34Zm0-2.15a4.58,4.58,0,0,0-.73-.18,4.14,4.14,0,0,0-.7-.06,3.18,3.18,0,0,0-1.66.36,1,1,0,0,0-.61,1,1,1,0,0,0,.38.77,1.5,1.5,0,0,0,1,.3,3,3,0,0,0,1.61-.45c.49-.31.74-.62.74-1Z"/>
  <path class="cls-3" d="M550,95.35h.29a1.44,1.44,0,0,1,.68.11.41.41,0,0,1,.18.39.45.45,0,0,1-.14.36.6.6,0,0,1-.41.12h-3.15a.79.79,0,0,1-.45-.11.5.5,0,0,1-.13-.37.47.47,0,0,1,.14-.37.53.53,0,0,1,.4-.13h1.48L550,93.17l-2.51-4.92a1.2,1.2,0,0,1-.62-.11.51.51,0,0,1,0-.72h0a.6.6,0,0,1,.41-.12h1.91a.9.9,0,0,1,.51.1.54.54,0,0,1,0,.75,1.24,1.24,0,0,1-.63.11h-.25L550.64,92l1.89-3.77h-.27a1.32,1.32,0,0,1-.65-.11.41.41,0,0,1-.18-.38.5.5,0,0,1,.13-.37.94.94,0,0,1,.52-.1h1.69a.6.6,0,0,1,.41.12.43.43,0,0,1,.14.35.43.43,0,0,1-.15.37,1,1,0,0,1-.54.12Z"/>
  <path class="cls-3" d="M557.54,92.48a1.12,1.12,0,0,1,.38-.87,1.31,1.31,0,0,1,1-.34,1.46,1.46,0,0,1,1,.33,1.13,1.13,0,0,1,.37.88,1.1,1.1,0,0,1-.37.88,1.42,1.42,0,0,1-1,.34,1.4,1.4,0,0,1-1-.34A1.14,1.14,0,0,1,557.54,92.48Z"/>
  <path class="cls-2" d="M574.4,87.61a.34.34,0,0,1-.25-.09.67.67,0,0,1-.1-.34l-.21-2.53h0a.33.33,0,0,1,.08-.25.29.29,0,0,1,.23-.08h.64a.31.31,0,0,1,.24.08.37.37,0,0,1,.07.25h0l-.2,2.53a.6.6,0,0,1-.11.34.3.3,0,0,1-.24.09Zm2.42,0a.34.34,0,0,1-.25-.09.67.67,0,0,1-.1-.34l-.21-2.53h0a.33.33,0,0,1,.08-.25.32.32,0,0,1,.23-.08h.66a.32.32,0,0,1,.23.08.33.33,0,0,1,.08.25h0l-.21,2.53a.6.6,0,0,1-.11.34.3.3,0,0,1-.24.09Z"/>
  <path class="cls-2" d="M582.69,96a1.91,1.91,0,0,1,.23-.6q.24-.47.36-.75a12,12,0,0,0,.66-2,9.43,9.43,0,0,0,0-3.59,10,10,0,0,0-.51-1.69c-.12-.3-.28-.66-.47-1.06a2.68,2.68,0,0,1-.3-.77.34.34,0,0,1,.07-.22.23.23,0,0,1,.18-.08.74.74,0,0,1,.48.22,3.7,3.7,0,0,1,.6.71,7.61,7.61,0,0,1,1.09,2.19,7.83,7.83,0,0,1-.85,6.63,6,6,0,0,1-.74,1,1,1,0,0,1-.58.31.25.25,0,0,1-.18-.08A.41.41,0,0,1,582.69,96Z"/>
  <g id="Group-2-Copy">
    <path id="Line-5-Copy-2" class="cls-4" d="M376,105.61v10.15h97.86V105.61"/>
    <path id="Line-6-Copy-2" class="cls-4" d="M427,115.79v11"/>
  </g>
  <path id="PARAMETERS-ARE-TREAT" class="cls-5" d="M229.49,142.79V134.9h2.62a4.76,4.76,0,0,1,1.59.24,2,2,0,0,1,1,.78,2.24,2.24,0,0,1,.39,1.35,3.07,3.07,0,0,1-.15,1,2.11,2.11,0,0,1-1.41,1.35,5.18,5.18,0,0,1-1.46.19h-1.19v3Zm2.46-4a3.46,3.46,0,0,0,.78-.09,1.64,1.64,0,0,0,.51-.22.86.86,0,0,0,.3-.33,1.3,1.3,0,0,0,.14-.39,1.41,1.41,0,0,0,0-.41,1.2,1.2,0,0,0-.42-1,1.78,1.78,0,0,0-1.18-.34h-1.2v2.76Zm2.82,4,2.89-7.87h1.59l2.85,7.87h-1.5l-.81-2.18H237l-.78,2.22Zm2.67-3.3h2l-1-3.2Zm5.4,3.3V134.9h2.95a8.39,8.39,0,0,1,1,.06,3.94,3.94,0,0,1,.84.19,2,2,0,0,1,.64.39,1.69,1.69,0,0,1,.38.63,2.4,2.4,0,0,1,.15.92,2,2,0,0,1-1.43,2.06,5.52,5.52,0,0,1,.72,1.22l1.17,2.42h-1.59l-.92-2c-.34-.74-.56-1.18-.64-1.31h-1.83v3.38Zm3-4.42a1.88,1.88,0,0,0,1.2-.3,1.15,1.15,0,0,0,.37-1,1,1,0,0,0-.37-.85,2,2,0,0,0-1.14-.28h-1.67v2.38h1.61Zm3.61,4.42,2.9-7.87h1.58l2.86,7.87h-1.5l-.78-2.22h-2.72l-.79,2.22Zm2.67-3.3h2l-1-3.2Zm5.45,3.3v-7.86h1.72l2.38,5.68,2.39-5.68h1.73v7.86h-1.34v-6.11l-.2.59-2,5H261l-2-5-.2-.59.05,2.28v3.86Zm9.89,0v-7.86h4.77l-.06,1.15h-3.26v2H272v1.16h-3.1v2.37h3.38l-.05,1.16Zm7.71,0v-6.7h-2.3v-1.16h6v1.16h-2.28v6.7Zm4.59,0v-7.86h4.77l-.06,1.15h-3.26v2h3.1v1.16h-3.1v2.37h3.38l0,1.16Zm6.15,0V134.9h2.88a8.39,8.39,0,0,1,1,.06,4,4,0,0,1,.83.19,1.75,1.75,0,0,1,.64.39,1.71,1.71,0,0,1,.39.63,2.89,2.89,0,0,1,.14.92,2,2,0,0,1-1.42,2.06,6.52,6.52,0,0,1,.72,1.22l1.17,2.42h-1.47l-.92-2c-.35-.74-.56-1.18-.65-1.31H287.4v3.38Zm3-4.42a1.91,1.91,0,0,0,1.21-.3,1.18,1.18,0,0,0,.36-1,1,1,0,0,0-.37-.85,1.87,1.87,0,0,0-1.13-.28h-1.67v2.38h1.6Zm6.69,4.53a5.07,5.07,0,0,1-2.55-.65l.35-1.16a5.53,5.53,0,0,0,1.1.45,3.85,3.85,0,0,0,1.16.18,1.58,1.58,0,0,0,1-.3,1.08,1.08,0,0,0,.35-.86c0-.49-.33-.84-1-1l-.39-.11-.6-.18-.41-.14a2.07,2.07,0,0,1-1.58-2.08,1.93,1.93,0,0,1,.76-1.65,3.17,3.17,0,0,1,2-.58,5,5,0,0,1,2.46.58l-.44,1.07a4.78,4.78,0,0,0-2-.48,1.82,1.82,0,0,0-1,.23.87.87,0,0,0-.35.76.83.83,0,0,0,.65.86l.63.2.66.21a3.55,3.55,0,0,1,1.54.88,2.18,2.18,0,0,1,.47,1.47,2,2,0,0,1-.8,1.73,3.45,3.45,0,0,1-2,.57Zm6.22-.11,2.89-7.87h1.59l2.85,7.87h-1.36l-.78-2.22h-2.76l-.78,2.22Zm2.67-3.3h2c-.65-2.07-1-3.14-1-3.2Zm5.41,3.3V134.9h2.89a8.39,8.39,0,0,1,1,.06,4,4,0,0,1,.83.19,1.75,1.75,0,0,1,.64.39,1.71,1.71,0,0,1,.39.63,2.89,2.89,0,0,1,.14.92,2,2,0,0,1-1.42,2.06,6.52,6.52,0,0,1,.72,1.22l1.17,2.42h-1.47l-.92-2c-.35-.74-.56-1.18-.65-1.31H311.4v3.38Zm3-4.42a1.91,1.91,0,0,0,1.21-.3,1.18,1.18,0,0,0,.36-1,1,1,0,0,0-.37-.85,1.87,1.87,0,0,0-1.13-.28H311.3v2.38h1.6Zm4.42,4.42v-7.86h4.77l-.06,1.15h-3.24v2h3.09v1.16h-3.09v2.37h3.37l-.05,1.16Zm10.62,0v-6.7h-2.15v-1.16h6v1.16h-2.28v6.7Zm4.55,0V134.9h2.92a8.39,8.39,0,0,1,1,.06,4,4,0,0,1,.83.19,1.75,1.75,0,0,1,.64.39,1.59,1.59,0,0,1,.39.63,2.64,2.64,0,0,1,.14.92,2,2,0,0,1-1.42,2.06,6.52,6.52,0,0,1,.72,1.22l1.17,2.42h-1.59l-.92-2c-.35-.74-.56-1.18-.64-1.31H333.9v3.38Zm3.05-4.42a1.88,1.88,0,0,0,1.2-.3,1.21,1.21,0,0,0,.37-1,1,1,0,0,0-.37-.85,2,2,0,0,0-1.14-.28h-1.67v2.38h1.61Zm4.42,4.42v-7.86h4.77l-.06,1.15h-3.26v2h3.1v1.16h-3.1v2.37h3.38l-.05,1.16Zm5.32,0,2.9-7.87h1.61l2.85,7.87h-1.49l-.78-2.22h-2.76l-.78,2.22Zm2.67-3.3h2c-.65-2.07-1-3.14-1-3.2Zm6.54,3.3v-6.7h-2.3v-1.16h6v1.16h-2.28v6.7Zm4.59,0v-7.86h4.77l-.06,1.15h-3.26v2h3.26v1.16h-3.1v2.37h3.38v1.16Zm7.65-1.16h1a2.48,2.48,0,0,0,2.75-2.15,2.15,2.15,0,0,0,0-.62,2.72,2.72,0,0,0-.72-2.1,3.14,3.14,0,0,0-2.19-.66h-.88Zm-1.46,1.16v-7.86h2.28a6.8,6.8,0,0,1,1.85.23,4.12,4.12,0,0,1,1.4.71,3,3,0,0,1,.9,1.23,4.46,4.46,0,0,1,.32,1.73,3.73,3.73,0,0,1-1.15,2.94,4.65,4.65,0,0,1-3.19,1Zm11,0v-7.86h1.46v6.68H381v1.16Zm5.79,0v-7.86h1.46v7.86Zm3.19,0v-7.86h1.47v3.54c.25-.34.77-1,1.56-1.88l1.4-1.66h1.72l-3,3.54,3.16,4.32h-1.71l-2.56-3.52-.6.5v3Zm6.94,0v-7.86H397l-.06,1.15h-3.11v2h3.09v1.16h-3.09v2.37h3.37l-.05,1.16Zm14.26,0-2.66-7.87h1.5l1.66,4.86c.06.17.21.67.45,1.48,0-.06.08-.29.19-.7a5.15,5.15,0,0,1,.24-.76l.81-2.43c.5-1.49.78-2.31.82-2.45H411l-2.83,7.87Zm3.67,0,2.9-7.87h1.77l2.85,7.87h-1.49l-.78-2.22h-2.78l-.79,2.22Zm2.67-3.31h2l-1-3.2Zm5.41,3.31V134.9h2.92a8.39,8.39,0,0,1,1,.06,4,4,0,0,1,.83.19,1.63,1.63,0,0,1,.64.39,1.59,1.59,0,0,1,.39.63,2.64,2.64,0,0,1,.14.92,2,2,0,0,1-1.42,2.06,5.69,5.69,0,0,1,.72,1.21l1.17,2.43h-1.4l-.92-2c-.35-.74-.56-1.18-.64-1.32h-1.84v3.38Zm3-4.42a1.88,1.88,0,0,0,1.2-.3,1.21,1.21,0,0,0,.37-1,1,1,0,0,0-.38-.85,1.87,1.87,0,0,0-1.13-.28h-1.47v2.38h1.61Zm4.51,4.42v-7.87h1.46v7.87Zm2.33,0,2.9-7.87h1.58l2.86,7.87h-1.5l-.78-2.22h-2.75l-.79,2.22Zm2.67-3.31h2l-1-3.2Zm5.5,3.31v-7.87h2.45a4.69,4.69,0,0,1,2.33.46,1.61,1.61,0,0,1,.77,1.52,1.93,1.93,0,0,1,0,.34,1.64,1.64,0,0,1-.1.38,1.35,1.35,0,0,1-.19.38,1.72,1.72,0,0,1-.86.59,1.91,1.91,0,0,1,1.11.68,2.2,2.2,0,0,1-.4,2.94,3.54,3.54,0,0,1-2.17.58Zm1.45-1h1.27c1.11,0,1.67-.44,1.67-1.31a1.08,1.08,0,0,0-.42-1,2.23,2.23,0,0,0-1.29-.29h-1.23Zm0-3.57h1.25c1,0,1.45-.36,1.45-1.1a.89.89,0,0,0-.42-.85,2.86,2.86,0,0,0-1.32-.23h-1Zm5.71,4.62v-7.87h1.45v6.69h3.3l-.05,1.16Zm5.75,0v-7.87h4.77l-.06,1.16h-3v2h3.09v1.15h-3.09v2.38h3.37l-.05,1.16Zm8.4.11a5,5,0,0,1-2.56-.66l.36-1.15a5.53,5.53,0,0,0,1.1.45,4.17,4.17,0,0,0,1.16.17,1.56,1.56,0,0,0,1-.3,1,1,0,0,0,.36-.85c0-.5-.33-.84-1-1l-.39-.11-.61-.19-.4-.13A2.11,2.11,0,0,1,455,137a2,2,0,0,1,.76-1.65,3.32,3.32,0,0,1,2-.58,4.88,4.88,0,0,1,2.45.59l-.44,1.06a4.81,4.81,0,0,0-2-.47,1.67,1.67,0,0,0-1,.23.87.87,0,0,0-.35.76.81.81,0,0,0,.65.85l.63.21.66.21a3.55,3.55,0,0,1,1.54.88,2.17,2.17,0,0,1,.46,1.47,2,2,0,0,1-.79,1.73,3.44,3.44,0,0,1-1.89.57Zm8.42-.11-2.13-7.87h1.45l1.52,6.13,1.8-6.09H470l1.7,6.11,1.56-6.15h1.45l-2.21,7.87H471L469.28,137l-1.84,5.76Zm9.71,0v-7.87h1.46v7.87Zm4.72,0v-6.7h-2.08v-1.17h6v1.17H482v6.7Zm4.59,0v-7.87h1.46v3.22H490v-3.22h1.46v7.87H490v-3.5h-3.55v3.5Zm8.2,0v-7.87h1.63v7.87Zm3.2,0v-7.87h1.55c.28.44.84,1.32,1.7,2.65l1.56,2.41.28.42.28.42V134.9h1.32v7.87h-1.56l-3.55-5.53-.26-.42v6Zm10.39,0,2.89-7.87h1.59l2.85,7.87h-1.29l-.78-2.22h-2.76l-.78,2.22Zm2.67-3.31h2c-.65-2.06-1-3.13-1-3.2Zm8.4,3.31v-7.87h4.65v1.16h-3.16v2.23h3v1.15h-3v3.33Zm9,.11a3.23,3.23,0,0,1-2.34-.77,2.87,2.87,0,0,1-.8-2.17v-5h1.46v4.92a2.14,2.14,0,0,0,.4,1.43,1.73,1.73,0,0,0,3-1.44V135H530v5a2.81,2.81,0,0,1-.82,2.16,3.25,3.25,0,0,1-2.22.73Zm4.82-.11v-7.87h1.54l1.91,2.69c.85,1.32,1.37,2.13,1.56,2.41,0,.09.14.22.28.42a4.94,4.94,0,0,1,.27.42v-5.92h1.33v7.87H537l-3.55-5.53-.26-.42v6Zm11.78.11a3.57,3.57,0,0,1-2.74-1.08,4.21,4.21,0,0,1-1-3,4,4,0,0,1,1.11-2.91,3.66,3.66,0,0,1,2.76-1.1,4.11,4.11,0,0,1,2.34.64l-.46,1.1a3.46,3.46,0,0,0-1.85-.56,2.06,2.06,0,0,0-1.71.78,3.87,3.87,0,0,0,0,4.21,2.12,2.12,0,0,0,1.73.74,4.35,4.35,0,0,0,2-.49l.2,1.14a4.37,4.37,0,0,1-2.18.53Zm5.07-.11v-6.7H546.2v-1.17h6v1.17h-2.28v6.7Zm4.71,0v-7.87h1.45v7.87Zm6.72-1.07a2,2,0,0,0,1.72-.75,3.26,3.26,0,0,0,.58-2.1,3.38,3.38,0,0,0-.58-2.13,2.34,2.34,0,0,0-3.31-.14h0a.93.93,0,0,0-.14.14,3.43,3.43,0,0,0-.59,2.13,3.33,3.33,0,0,0,.59,2.1,2.06,2.06,0,0,0,1.88.75Zm0,1.18a3.67,3.67,0,0,1-2.81-1.07,4.21,4.21,0,0,1-1-3,4.12,4.12,0,0,1,1-3,3.83,3.83,0,0,1,6.61,3,4.12,4.12,0,0,1-1,3,3.66,3.66,0,0,1-2.66,1.07Zm5.22-.11v-7.87h1.54l1.7,2.65c.86,1.32,1.38,2.13,1.57,2.41,0,.09.14.22.27.42a3.07,3.07,0,0,1,.28.42V134.9h1.33v7.87h-1.57l-3.47-5.53-.26-.42v6Z"/>
  <path id="Line-4-Copy" class="cls-6" d="M235.51,35.89v-9"/>
  <path id="Line-5-Copy-4" class="cls-4" d="M235.51,25.89h-94v9"/>
  <path id="Line-6-Copy-4" class="cls-4" d="M188.51,25.89v-11"/>
  <path id="PARAMETERS" class="cls-5" d="M157.65,7.89V0h2.67a4.76,4.76,0,0,1,1.59.24,2,2,0,0,1,1,.78,2.24,2.24,0,0,1,.39,1.35,3.07,3.07,0,0,1-.15,1,2,2,0,0,1-.48.79,2.15,2.15,0,0,1-.93.55,4.81,4.81,0,0,1-1.46.2,7.84,7.84,0,0,1-1.19,0v3Zm2.46-4a3.44,3.44,0,0,0,.78-.08,1.7,1.7,0,0,0,.52-.22,1.05,1.05,0,0,0,.29-.34,1.37,1.37,0,0,0,.15-.38,2.94,2.94,0,0,0,0-.42,1.16,1.16,0,0,0-.42-1,1.78,1.78,0,0,0-1.18-.34h-1.2V3.86Zm2.82,4L165.82,0h1.59l2.85,7.87h-1.49L168,5.67h-2.76l-.78,2.22Zm2.67-3.28h2c-.65-2.06-1-3.13-1-3.2ZM171,7.92V0h2.91a8.39,8.39,0,0,1,1,.06,4,4,0,0,1,.83.19,1.75,1.75,0,0,1,.64.39,1.69,1.69,0,0,1,.38.63,2.4,2.4,0,0,1,.15.92,2,2,0,0,1-1.43,2.06,5.69,5.69,0,0,1,.72,1.21l1.17,2.43h-1.59l-.91-2c-.35-.74-.57-1.18-.65-1.32h-1.82V7.9Zm3-4.42a1.88,1.88,0,0,0,1.2-.3,1.15,1.15,0,0,0,.37-1,1,1,0,0,0-.37-.85,1.87,1.87,0,0,0-1.13-.28h-1.67V3.45H174Zm3.62,4.42L180.52.05h1.59L185,7.92h-1.5l-.77-2.22h-2.76l-.78,2.22Zm2.69-3.31h2c-.65-2.06-1-3.13-1-3.2Zm5.44,3.31V0h1.72l2.38,5.69L192.26,0H194V7.89h-1.34V1.77l-.2.6-2,5h-1.25l-2-5-.2-.59,0,2.28V7.92Zm9.89,0V0h4.77l-.1,1.16h-3.25v2h3.09V4.33h-3.09V6.7h3.37V7.86Zm7.71,0V1.22h-2.3V0h6V1.19h-2.28v6.7Zm4.59,0V0h4.77l-.06,1.16h-3.25v2h3.09V4.33h-3.09V6.7h3.37V7.86Zm6.15,0V0H217a8.39,8.39,0,0,1,1,.06,4,4,0,0,1,.83.19,1.75,1.75,0,0,1,.64.39,1.71,1.71,0,0,1,.39.63,2.64,2.64,0,0,1,.14.92,2,2,0,0,1-1.42,2.06,5.69,5.69,0,0,1,.72,1.21l1.17,2.43H218.9l-.92-2c-.35-.74-.56-1.18-.64-1.32h-1.83V7.9Zm3-4.42a1.9,1.9,0,0,0,1.2-.3,1.18,1.18,0,0,0,.36-1,1,1,0,0,0-.37-.85,1.87,1.87,0,0,0-1.13-.28h-1.67V3.45h1.61Z"/>
</svg>
